<?xml version="1.0" standalone="no"?><!DOCTYPE svg PUBLIC "-//W3C//DTD SVG 1.1//EN" "http://www.w3.org/Graphics/SVG/1.1/DTD/svg11.dtd"><svg t="1597042036172" class="icon" viewBox="0 0 1024 1024" version="1.1" xmlns="http://www.w3.org/2000/svg" p-id="1458" xmlns:xlink="http://www.w3.org/1999/xlink" width="32" height="32"><defs><style type="text/css"></style></defs><path d="M341.333333 238.933333h341.333334c10.24 0 17.066667-6.826667 17.066666-17.066666 0-6.826667-3.413333-10.24-6.826666-13.653334L525.653333 6.826667c-6.826667-6.826667-20.48-6.826667-27.306666 0l-170.666667 204.8c-3.413333 3.413333-3.413333 10.24-3.413333 17.066666 3.413333 6.826667 10.24 10.24 17.066666 10.24zM682.666667 785.066667H341.333333c-6.826667 0-13.653333 3.413333-17.066666 10.24-3.413333 6.826667-3.413333 13.653333 3.413333 17.066666l170.666667 204.8c3.413333 3.413333 6.826667 6.826667 13.653333 6.826667s10.24-3.413333 13.653333-6.826667l170.666667-204.8c3.413333-3.413333 6.826667-13.653333 3.413333-17.066666-3.413333-6.826667-10.24-10.24-17.066666-10.24zM614.4 375.466667h-204.8c-47.786667 0-85.333333 37.546667-85.333333 85.333333v102.4c0 47.786667 37.546667 85.333333 85.333333 85.333333h204.8c47.786667 0 85.333333-37.546667 85.333333-85.333333v-102.4c0-47.786667-37.546667-85.333333-85.333333-85.333333z" fill="" p-id="1459"></path></svg>