<?xml version="1.0" standalone="no"?><!DOCTYPE svg PUBLIC "-//W3C//DTD SVG 1.1//EN" "http://www.w3.org/Graphics/SVG/1.1/DTD/svg11.dtd"><svg t="1597121152897" class="icon" viewBox="0 0 1024 1024" version="1.1" xmlns="http://www.w3.org/2000/svg" p-id="4879" xmlns:xlink="http://www.w3.org/1999/xlink" width="32" height="32"><defs><style type="text/css"></style></defs><path d="M243.2 364.544l-2.048 301.056 260.096 153.6 264.704-147.456 2.048-300.544-262.144-153.6-262.656 146.944z m241.152 401.408l-206.848-119.296 2.048-243.2L486.4 512l-2.048 253.952z m243.2-115.2l-206.848 115.2 2.048-256 206.848-104.448-2.048 245.248zM505.856 480.256L307.2 375.296l200.704-115.2 198.144 117.248c0 0.512-200.704 102.912-200.192 102.912z" fill="#2B85FB" p-id="4880"></path><path d="M665.6 151.552L631.296 204.8l208.896 125.952-4.096 381.952-64 38.4 31.744 55.296 93.696-55.296 4.096-456.704v-2.048L665.6 151.552zM170.496 322.048l336.896-189.952 66.048 40.448 31.744-53.248-95.232-57.344h-2.048l-399.36 221.696-2.048 277.504h61.952l2.048-239.104z m330.752 582.656l-334.848-196.096 2.048-76.8-61.952-2.048-2.048 115.2 394.752 232.448h2.048l241.152-136.704 2.048-2.048-31.744-55.296-211.456 121.344z" fill="#2B85FB" p-id="4881"></path></svg>