<?xml version="1.0" standalone="no"?><!DOCTYPE svg PUBLIC "-//W3C//DTD SVG 1.1//EN" "http://www.w3.org/Graphics/SVG/1.1/DTD/svg11.dtd"><svg t="1595909037470" class="icon" viewBox="0 0 1024 1024" version="1.1" xmlns="http://www.w3.org/2000/svg" p-id="4999" xmlns:xlink="http://www.w3.org/1999/xlink" width="32" height="32"><defs><style type="text/css"></style></defs><path d="M935.468266 0h-247.172414c-18.422789 0-33.263368 14.84058-33.263368 33.263368s14.84058 33.263368 33.263368 33.263369h247.172414c11.770115 0 21.493253 9.723138 21.493253 21.493253v847.96002c0 11.770115-9.723138 21.493253-21.493253 21.493253h-247.172414c-18.422789 0-33.263368 14.84058-33.263368 33.263369s14.84058 33.263368 33.263368 33.263368h247.172414c48.615692 0 88.01999-39.404298 88.01999-88.01999V88.01999c0-48.615692-39.404298-88.01999-88.01999-88.01999zM0 88.01999v847.96002c0 48.615692 39.404298 88.01999 88.01999 88.01999h247.172414c18.422789 0 33.263368-14.84058 33.263368-33.263368s-14.84058-33.263368-33.263368-33.263369h-247.172414c-11.770115 0-21.493253-9.723138-21.493253-21.493253V88.01999c0-11.770115 9.723138-21.493253 21.493253-21.493253h247.172414c18.422789 0 33.263368-14.84058 33.263368-33.263369s-14.84058-33.263368-33.263368-33.263368h-247.172414c-48.615692 0-88.01999 39.404298-88.01999 88.01999z" p-id="5000"></path><path d="M225.167416 798.32084v-294.252874c0-18.422789 14.84058-33.263368 33.263369-33.263368s33.263368 14.84058 33.263368 33.263368V798.32084c0 18.422789-14.84058 33.263368-33.263368 33.263368s-33.263368-14.84058-33.263369-33.263368zM394.042979 798.32084V250.754623c0-18.422789 14.84058-33.263368 33.263368-33.263369s33.263368 14.84058 33.263368 33.263369v547.566217c0 18.422789-14.84058 33.263368-33.263368 33.263368s-33.263368-14.84058-33.263368-33.263368zM562.918541 798.32084v-465.687157c0-18.422789 14.84058-33.263368 33.263368-33.263368s33.263368 14.84058 33.263368 33.263368v465.687157c0 18.422789-14.84058 33.263368-33.263368 33.263368s-33.263368-14.84058-33.263368-33.263368zM731.794103 798.32084v-199.58021c0-18.422789 14.84058-33.263368 33.263368-33.263369s33.263368 14.84058 33.263369 33.263369v199.58021c0 18.422789-14.84058 33.263368-33.263369 33.263368s-33.263368-14.84058-33.263368-33.263368z" p-id="5001"></path></svg>