<?xml version="1.0" standalone="no"?><!DOCTYPE svg PUBLIC "-//W3C//DTD SVG 1.1//EN" "http://www.w3.org/Graphics/SVG/1.1/DTD/svg11.dtd"><svg t="1597396326543" class="icon" viewBox="0 0 1084 1024" version="1.1" xmlns="http://www.w3.org/2000/svg" p-id="3903" xmlns:xlink="http://www.w3.org/1999/xlink" width="33.875" height="32"><defs><style type="text/css"></style></defs><path d="M240 334h680a60 60 0 0 1 60 60v470H180V394a60 60 0 0 1 60-60z" fill="#495057" p-id="3904"></path><path d="M240 400.4h680v442H240z" fill="#F8F9FA" p-id="3905"></path><path d="M723.88 632.14l-81.26 63.24a39.82 39.82 0 0 1-48.96 0l-166.68-129.72a39.82 39.82 0 0 0-48.96 0L0 859.9h1062.42L773 632.26a39.82 39.82 0 0 0-49.12-0.12z" fill="#FCC419" p-id="3906"></path><path d="M1061.94 928.08h-58.44V514.9h58.44zM949.22 928.08h-58.44V514.9h58.44zM836.5 928.08h-58.44V514.9h58.44zM723.78 928.08h-58.44V514.9h58.44zM611.08 928.08h-58.44V514.9h58.44zM498.36 928.08h-58.44V514.9h58.44zM385.64 928.08H327.2V514.9h58.44zM272.92 928.08H214.48V514.9h58.44zM160.2 928.08H101.76V514.9H160.2z" fill="#FAB005" p-id="3907"></path><path d="M686 318m-200 0a200 200 0 1 0 400 0 200 200 0 1 0-400 0Z" fill="#9775FA" p-id="3908"></path><path d="M588.58 459.72l85.02 125.48a13.76 13.76 0 0 0 22.78 0l84.7-125.2z" fill="#9775FA" p-id="3909"></path><path d="M686 318m-159.1 0a159.1 159.1 0 1 0 318.2 0 159.1 159.1 0 1 0-318.2 0Z" fill="#845EF7" p-id="3910"></path><path d="M641 273m-23.18 0a23.18 23.18 0 1 0 46.36 0 23.18 23.18 0 1 0-46.36 0Z" fill="#FFFFFF" p-id="3911"></path><path d="M629.82 386a11.9 11.9 0 0 1-8.4-20.3l112.36-112.36a11.88 11.88 0 0 1 16.82 16.82l-112.36 112.36a11.84 11.84 0 0 1-8.42 3.48z" fill="#FFFFFF" p-id="3912"></path><path d="M731 363m-23.18 0a23.18 23.18 0 1 0 46.36 0 23.18 23.18 0 1 0-46.36 0Z" fill="#FFFFFF" p-id="3913"></path><path d="M110 842.4h940a8 8 0 0 1 8 8v15.6a48 48 0 0 1-48 48H150a48 48 0 0 1-48-48v-15.6a8 8 0 0 1 8-8z" fill="#495057" p-id="3914"></path><path d="M503.38 842.4h153.24v3.46a32 32 0 0 1-32 32h-89.32a32 32 0 0 1-32-32v-3.46h0.08z" fill="#868E96" p-id="3915"></path></svg>