<?xml version="1.0" standalone="no"?><!DOCTYPE svg PUBLIC "-//W3C//DTD SVG 1.1//EN" "http://www.w3.org/Graphics/SVG/1.1/DTD/svg11.dtd"><svg t="1594981044344" class="icon" viewBox="0 0 1024 1024" version="1.1" xmlns="http://www.w3.org/2000/svg" p-id="3805" xmlns:xlink="http://www.w3.org/1999/xlink" width="128" height="128"><defs><style type="text/css"></style></defs><path d="M881.777778 1024H142.222222a142.222222 142.222222 0 0 1-142.222222-142.222222V227.555556a142.222222 142.222222 0 0 1 142.222222-142.222223h739.555556a142.222222 142.222222 0 0 1 142.222222 142.222223v654.222222a142.222222 142.222222 0 0 1-142.222222 142.222222zM142.222222 144.213333a85.333333 85.333333 0 0 0-85.333333 85.333334V881.777778a85.333333 85.333333 0 0 0 85.333333 85.333333h739.555556a85.333333 85.333333 0 0 0 85.333333-85.333333V227.555556a85.333333 85.333333 0 0 0-85.333333-85.333334z" fill="#0e932e" p-id="3806"></path><path d="M318.008889 0m28.444444 0l0 0q28.444444 0 28.444445 28.444444l0 170.097778q0 28.444444-28.444445 28.444445l0 0q-28.444444 0-28.444444-28.444445l0-170.097778q0-28.444444 28.444444-28.444444Z" fill="#0e932e" p-id="3807"></path><path d="M684.088889 0m28.444444 0l0 0q28.444444 0 28.444445 28.444444l0 170.097778q0 28.444444-28.444445 28.444445l0 0q-28.444444 0-28.444444-28.444445l0-170.097778q0-28.444444 28.444444-28.444444Z" fill="#0e932e" p-id="3808"></path><path d="M0 283.875556h1008.64v56.888888H0z" fill="#0e932e" p-id="3809"></path><path d="M793.6 466.204444a28.444444 28.444444 0 0 0-40.106667 0L451.697778 768l-181.191111-181.191111a28.444444 28.444444 0 1 0-40.106667 40.391111l201.102222 201.102222a28.444444 28.444444 0 0 0 20.195556 8.248889 28.444444 28.444444 0 0 0 20.195555-8.248889L793.6 506.595556a28.444444 28.444444 0 0 0 0-40.391112z" fill="#0e932e" p-id="3810"></path></svg>