<?xml version="1.0" standalone="no"?><!DOCTYPE svg PUBLIC "-//W3C//DTD SVG 1.1//EN" "http://www.w3.org/Graphics/SVG/1.1/DTD/svg11.dtd"><svg t="1597042135306" class="icon" viewBox="0 0 1024 1024" version="1.1" xmlns="http://www.w3.org/2000/svg" p-id="4206" xmlns:xlink="http://www.w3.org/1999/xlink" width="32" height="32"><defs><style type="text/css"></style></defs><path d="M907.236767 19.060812H586.214526c-13.957489 0-23.262481 9.304992-23.262481 23.262481s9.304992 23.262481 23.262481 23.262481H907.236767c39.546218 0 69.787444 32.567474 69.787444 69.787444V907.687594c0 39.546218-30.241226 69.787444-69.787444 69.787444H116.312406c-39.546218 0-69.787444-32.567474-69.787444-69.787444V372.650526c0-13.957489-9.304992-23.262481-23.262481-23.262481s-23.262481 9.304992-23.262481 23.262481v535.037068c0 65.134947 51.177459 116.312406 116.312406 116.312406h790.924361c65.134947 0 116.312406-53.503707 116.312406-116.312406V135.373218c0-62.808699-53.503707-116.312406-116.312406-116.312406zM120.964902 44.649541L174.468609 70.238271c116.312406 60.482451 190.752346 146.553632 197.73109 230.298563 2.326248 30.241226 2.326248 79.092436 0 109.333662l-2.326248 23.262481c0 6.978744-4.652496 11.631241-11.63124 11.631241l-107.007414 6.978744c-13.957489 0-25.588729 9.304992-30.241226 23.262482-4.652496 13.957489 0 27.914977 6.978745 34.893721l248.908549 265.192286c6.978744 6.978744 16.283737 9.304992 25.588729 9.304993 9.304992 0 16.283737-4.652496 25.588729-13.957489l214.014828-290.781015c9.304992-9.304992 11.631241-25.588729 4.652496-37.21997s-18.609985-20.936233-32.567474-18.609985l-141.901135 9.304992-2.326248-25.588729c-4.652496-74.43994-11.631241-139.574887-48.851211-200.057338C467.575872 116.763233 355.915962 46.975789 218.667323 19.060812L137.248639 0.450827c-11.631241-2.326248-23.262481 4.652496-27.914977 13.957489-4.652496 11.631241 2.326248 25.588729 11.63124 30.241225z m360.568459 183.773602c32.567474 53.503707 37.21997 111.65991 41.872466 179.121105l2.326248 39.546218c0 18.609985 16.283737 32.567474 34.893722 32.567474l127.943647-6.978745-190.752346 258.213542-218.667324-232.624812 102.354918-6.978745c16.283737 0 30.241226-13.957489 32.567473-32.567473l2.326249-41.872467c4.652496-34.893722 4.652496-86.07118 0-118.638654-6.978744-74.43994-55.829955-148.87988-132.596143-209.362331 88.397429 27.914977 162.837368 79.092436 197.73109 139.574888z" fill="#666666" p-id="4207"></path></svg>