<?xml version="1.0" standalone="no"?><!DOCTYPE svg PUBLIC "-//W3C//DTD SVG 1.1//EN" "http://www.w3.org/Graphics/SVG/1.1/DTD/svg11.dtd"><svg t="1597120898440" class="icon" viewBox="0 0 1024 1024" version="1.1" xmlns="http://www.w3.org/2000/svg" p-id="2023" xmlns:xlink="http://www.w3.org/1999/xlink" width="32" height="32"><defs><style type="text/css"></style></defs><path d="M896 512a384 384 0 1 0-768 0 384 384 0 0 0 768 0zM42.666667 512C42.666667 252.8 252.8 42.666667 512 42.666667s469.333333 210.133333 469.333333 469.333333-210.133333 469.333333-469.333333 469.333333S42.666667 771.2 42.666667 512z m469.333333 60.330667l-140.501333 140.501333-60.330667-60.330667L451.669333 512 311.168 371.498667l60.330667-60.330667L512 451.669333l140.501333-140.501333 60.330667 60.330667L572.330667 512l140.501333 140.501333-60.330667 60.330667L512 572.330667z" p-id="2024"></path></svg>