<?xml version="1.0" standalone="no"?><!DOCTYPE svg PUBLIC "-//W3C//DTD SVG 1.1//EN" "http://www.w3.org/Graphics/SVG/1.1/DTD/svg11.dtd"><svg t="1597120922891" class="icon" viewBox="0 0 1024 1024" version="1.1" xmlns="http://www.w3.org/2000/svg" p-id="2227" xmlns:xlink="http://www.w3.org/1999/xlink" width="32" height="32"><defs><style type="text/css"></style></defs><path d="M824.888889 630.992593l-122.026667-50.346667a28.444444 28.444444 0 1 0-21.143703 53.57037l60.112592 24.367408-60.112592 27.591111a28.444444 28.444444 0 0 0-14.601482 37.357037A28.918519 28.918519 0 0 0 693.096296 739.555556a15.454815 15.454815 0 0 0 11.377778-3.223704l120.414815-54.992593a28.918519 28.918519 0 0 0 16.213333-25.979259A25.694815 25.694815 0 0 0 824.888889 630.992593zM548.598519 517.30963a28.444444 28.444444 0 0 0-35.745186 17.825185l-61.629629 188.397037a28.444444 28.444444 0 0 0 17.825185 35.745185 17.540741 17.540741 0 0 0 8.154074 1.611852 31.668148 31.668148 0 0 0 27.591111-19.531852l61.724445-188.302222a28.444444 28.444444 0 0 0-17.92-35.745185zM358.684444 597.333333a30.151111 30.151111 0 0 0-37.357037-16.213333L199.111111 630.992593a30.435556 30.435556 0 0 0-17.825185 25.979259A28.444444 28.444444 0 0 0 197.973333 682.666667l120.130371 55.182222a30.056296 30.056296 0 0 0 11.377777 3.223704 28.918519 28.918519 0 0 0 25.97926-16.213334 28.444444 28.444444 0 0 0-14.601482-37.357037l-60.112592-27.591111 60.112592-24.367407c16.213333-7.774815 24.367407-24.082963 17.825185-38.210371z" fill="#707070" p-id="2228"></path><path d="M853.333333 170.666667a56.888889 56.888889 0 0 1 56.888889 56.888889v568.888888a56.888889 56.888889 0 0 1-56.888889 56.888889H170.666667a56.888889 56.888889 0 0 1-56.888889-56.888889V227.555556a56.888889 56.888889 0 0 1 56.888889-56.888889h682.666666m0-56.888889H170.666667A113.777778 113.777778 0 0 0 56.888889 227.555556v568.888888a113.777778 113.777778 0 0 0 113.777778 113.777778h682.666666a113.777778 113.777778 0 0 0 113.777778-113.777778V227.555556a113.777778 113.777778 0 0 0-113.777778-113.777778z" fill="#707070" p-id="2229"></path><path d="M967.111111 365.321481H56.888889v56.888889h910.222222v-56.888889z" fill="#707070" p-id="2230"></path><path d="M224.995556 273.540741m-42.666667 0a42.666667 42.666667 0 1 0 85.333333 0 42.666667 42.666667 0 1 0-85.333333 0Z" fill="#707070" p-id="2231"></path><path d="M357.451852 273.540741m-42.666667 0a42.666667 42.666667 0 1 0 85.333334 0 42.666667 42.666667 0 1 0-85.333334 0Z" fill="#707070" p-id="2232"></path><path d="M489.908148 273.540741m-42.666667 0a42.666667 42.666667 0 1 0 85.333334 0 42.666667 42.666667 0 1 0-85.333334 0Z" fill="#707070" p-id="2233"></path></svg>