<?xml version="1.0" standalone="no"?><!DOCTYPE svg PUBLIC "-//W3C//DTD SVG 1.1//EN" "http://www.w3.org/Graphics/SVG/1.1/DTD/svg11.dtd"><svg t="1597726120296" class="icon" viewBox="0 0 1024 1024" version="1.1" xmlns="http://www.w3.org/2000/svg" p-id="553" width="32" height="32" xmlns:xlink="http://www.w3.org/1999/xlink"><defs><style type="text/css"></style></defs><path d="M981.290667 453.376c-1.834667-17.28-4.522667-37.248-9.984-59.050667s-14.549333-45.44-26.368-70.869333c-12.714667-24.533333-28.16-50.901333-49.066667-75.434667-8.192-9.984-17.28-19.072-26.368-29.056 14.549333-57.258667-17.28-107.221333-17.28-107.221333-55.424-3.626667-89.941333 17.28-102.656 26.368-1.834667-0.896-4.522667-1.834667-6.357333-2.730667-9.088-3.626667-19.072-7.253333-29.056-10.922666-9.984-2.730667-20.010667-6.357333-29.994667-8.192-9.984-2.730667-20.906667-4.522667-31.786667-6.357334-1.834667 0-3.626667-0.896-5.461333-0.896C623.274667 32.682667 554.24 0 554.24 0c-79.061333 50.901333-94.506667 119.04-94.506667 119.04s0 1.834667-0.896 3.626667c-4.522667 0.896-8.192 2.730667-12.714666 3.626666-5.461333 1.834667-11.818667 3.626667-17.28 6.357334s-11.818667 4.522667-17.28 7.253333c-11.818667 5.461333-22.698667 10.922667-34.517334 17.28a363.52 363.52 0 0 0-31.786666 20.010667c-1.834667-0.896-2.730667-1.834667-2.730667-1.834667-106.325333-40.874667-200.789333 8.192-200.789333 8.192-8.192 113.578667 42.709333 184.448 52.693333 197.162667-2.730667 7.253333-4.522667 13.610667-7.253333 20.906666a454.741333 454.741333 0 0 0-17.28 79.061334c-0.896 3.626667-0.896 8.192-1.834667 11.818666-98.133333 48.170667-127.189333 148.096-127.189333 148.096 81.792 94.506667 178.090667 99.968 178.090666 99.968a410.026667 410.026667 0 0 0 41.813334 61.781334c6.357333 8.192 13.610667 15.445333 20.906666 23.637333-29.994667 85.418667 4.522667 157.184 4.522667 157.184 91.776 3.626667 151.722667-39.978667 164.437333-49.962667l27.264 8.192c28.16 7.253333 57.258667 11.818667 85.418667 12.714667h37.248c42.709333 61.781333 119.04 69.973333 119.04 69.973333 53.589333-57.258667 57.258667-112.682667 57.258667-125.397333v-5.461333c10.922667-8.192 21.802667-16.341333 32.725333-25.429334 21.802667-19.072 39.978667-41.813333 56.32-65.408 1.834667-1.834667 2.730667-4.522667 4.522667-6.357333 60.885333 3.626667 103.594667-38.144 103.594666-38.144-9.984-63.616-46.336-94.506667-53.589333-99.968l-0.896-0.896-0.896-0.896-0.896-0.896c0-3.626667 0.896-7.253333 0.896-11.818667 0.896-7.253333 0.896-13.610667 0.896-20.906666v-26.368c0-1.834667 0-3.626667-0.896-5.461334l-1.834667-10.922666c-0.896-7.253333-2.730667-13.610667-3.626666-20.906667a269.952 269.952 0 0 0-30.890667-76.330667 283.050667 283.050667 0 0 0-51.797333-61.781333 251.306667 251.306667 0 0 0-65.408-41.813333 229.034667 229.034667 0 0 0-71.765334-20.010667c-11.818667-1.834667-24.533333-1.834667-36.352-1.834667h-18.176c-6.357333 0.896-12.714667 1.834667-18.176 2.730667-24.533333 4.522667-47.232 13.610667-67.242666 25.429333s-37.248 27.264-51.797334 44.501334a182.784 182.784 0 0 0-32.725333 55.424c-7.253333 19.072-11.818667 39.978667-12.714667 59.050666v21.802667c0 2.730667 0 4.522667 0.896 7.253333a155.392 155.392 0 0 0 29.994667 77.226667c10.922667 14.549333 22.698667 25.429333 36.352 34.517333 13.610667 9.088 27.264 15.445333 41.813333 20.010667s28.16 6.357333 40.874667 5.461333h19.029333c1.834667 0 3.626667-0.896 4.522667-0.896 1.834667 0 2.730667-0.896 4.522667-0.896 2.730667-0.896 6.357333-1.834667 9.088-2.730666 5.461333-1.834667 10.922667-4.522667 16.341333-6.357334 5.461333-2.730667 9.984-5.461333 13.610667-8.192 0.896-0.896 2.730667-1.834667 3.626666-2.730666a10.24 10.24 0 0 0 1.834667-14.549334 12.714667 12.714667 0 0 0-13.610667-2.730666c-0.896 0.896-1.834667 0.896-3.626666 1.834666a61.013333 61.013333 0 0 1-11.818667 4.522667c-4.522667 0.896-9.088 2.730667-13.610667 3.626667-2.730667 0-4.522667 0.896-7.253333 0.896h-15.402667s-0.896 0 0 0h-3.669333c-0.938667 0-2.730667 0-3.626667-0.896-9.984-1.834667-20.906667-4.522667-30.890666-9.088s-20.010667-10.922667-28.16-19.072c-9.088-8.192-16.341333-17.28-22.698667-28.16s-9.984-22.698667-11.818667-34.517334c-0.896-6.357333-1.834667-12.714667-0.896-19.072v-5.461333c0 0.896 0 0 0 0v-4.565333c0-3.626667 0.896-6.357333 1.834667-9.984a132.864 132.864 0 0 1 39.082667-73.6c5.461333-5.461333 10.922667-9.984 17.28-13.610667 6.357333-4.522667 12.714667-8.192 19.072-10.922667s13.610667-5.461333 20.906666-7.253333c7.253333-1.834667 14.549333-3.626667 21.802667-3.626667 3.626667 0 7.253333-0.896 10.922667-0.896h7.253333c0.896 0 0 0 0 0h3.626667a172.629333 172.629333 0 0 1 69.077333 20.906667c29.056 16.341333 53.589333 40.874667 68.138667 70.869333 7.253333 14.549333 12.714667 30.890667 15.445333 48.170667 0.896 4.522667 0.896 8.192 1.834667 12.714667v23.637333c0 4.522667-0.896 9.088-0.896 13.610667-0.896 4.522667-0.896 9.088-1.834667 13.610666l-2.730667 13.610667c-0.896 4.522667-5.461333 17.28-8.192 26.368s-15.445333 33.621333-26.368 48.170667a220.330667 220.330667 0 0 1-85.418666 69.973333c-17.28 7.253333-34.517333 13.610667-52.693334 16.341333a137.429333 137.429333 0 0 1-27.264 2.730667h-13.610666c0.896 0 0 0 0 0h-0.896c-4.522667 0-9.984 0-14.549334-0.896-20.010667-1.834667-39.082667-5.461333-58.154666-10.922667s-37.248-12.714667-54.528-21.802666a296.789333 296.789333 0 0 1-89.941334-74.496c-11.818667-15.445333-22.698667-31.786667-31.786666-49.066667s-15.445333-35.456-20.906667-53.589333a234.197333 234.197333 0 0 1-9.088-56.32v-28.16c0-9.088 0.896-19.072 2.730667-29.056 0.896-9.984 2.730667-19.072 4.522666-29.056s4.522667-19.072 7.253334-29.056 11.818667-37.248 20.010666-54.528c16.341333-34.517333 37.248-65.408 61.781334-89.941334 6.357333-6.357333 12.714667-11.818667 20.010666-17.28 2.730667-2.730667 9.088-8.192 16.341334-12.714666s14.549333-9.088 22.698666-12.714667c3.626667-1.834667 7.253333-3.626667 11.818667-5.461333 1.834667-0.896 3.626667-1.834667 6.357333-2.730667 1.834667-0.896 3.626667-1.834667 6.357334-2.730667 8.192-3.626667 16.341333-6.357333 24.533333-9.088 1.834667-0.896 4.522667-0.896 6.357333-1.834666s4.522667-0.896 6.357334-1.834667 8.192-1.834667 12.714666-3.626667c1.834667-0.896 4.522667-0.896 6.357334-1.834666 1.834667 0 4.522667-0.896 6.357333-0.896s4.522667-0.896 6.357333-0.896l7.253334-1.834667c1.834667 0 4.522667-0.896 6.357333-0.896 2.730667 0 4.522667-0.896 7.253333-0.896 1.834667 0 5.461333-0.896 7.253334-0.896s2.730667 0 4.522666-0.896h6.357334c2.730667 0 4.522667 0 7.253333-0.896h3.626667s0.896 0 0 0h33.621333c16.341333 0.896 32.725333 2.730667 48.170667 5.461333a308.650667 308.650667 0 0 1 87.210666 29.056 327.509333 327.509333 0 0 1 70.869334 46.336c0.896 0.896 2.730667 1.834667 3.626666 3.626667 0.896 0.896 2.730667 1.834667 3.626667 3.626667 2.730667 1.834667 4.522667 4.522667 7.253333 6.357333s4.522667 4.522667 7.253334 6.357333c1.834667 2.730667 4.522667 4.522667 6.357333 7.253334a336.213333 336.213333 0 0 1 59.989333 84.48c0.896 0.896 0.896 1.834667 1.834667 3.626666 0.896 0.896 0.896 1.834667 1.834667 3.626667s1.834667 4.522667 3.626666 6.357333c0.896 1.834667 1.834667 4.522667 2.730667 6.357334s1.834667 4.522667 2.730667 6.357333c3.626667 8.192 6.357333 16.341333 9.088 24.533333 4.522667 12.714667 7.253333 23.637333 9.984 32.725334a8.704 8.704 0 0 0 8.192 6.357333c4.522667 0 7.253333-3.626667 7.253333-8.192-0.896-10.922667-0.896-22.698667-1.834667-36.352z" p-id="554" fill="#1296db"></path></svg>