<?xml version="1.0" standalone="no"?><!DOCTYPE svg PUBLIC "-//W3C//DTD SVG 1.1//EN" "http://www.w3.org/Graphics/SVG/1.1/DTD/svg11.dtd"><svg t="1595245426675" class="icon" viewBox="0 0 1024 1024" version="1.1" xmlns="http://www.w3.org/2000/svg" p-id="2750" xmlns:xlink="http://www.w3.org/1999/xlink" width="200" height="200"><defs><style type="text/css"></style></defs><path d="M964.484048 264.071937a38.302826 38.302826 0 0 0-38.302826 38.302826v574.031682a63.838043 63.838043 0 0 1-63.838043 63.838043h-714.98608a63.838043 63.838043 0 0 1-63.838043-63.838043V257.943485a63.838043 63.838043 0 0 1 63.838043-65.370156h579.649429l-46.474095 51.070435a38.302826 38.302826 0 1 0 57.198887 51.070434L863.875292 155.802617 737.73132 12.805401a38.302826 38.302826 0 1 0-57.198887 51.070434l46.474095 51.070434H147.357099A140.443694 140.443694 0 0 0 6.913405 257.943485v618.46296a140.443694 140.443694 0 0 0 140.443694 140.443694h714.98608a140.443694 140.443694 0 0 0 140.443695-140.443694V302.374763a38.302826 38.302826 0 0 0-38.302826-38.302826z" fill="#438CFF" p-id="2751"></path><path d="M249.497968 492.867483a38.302826 38.302826 0 0 0-38.302826 38.302826V819.718263a38.302826 38.302826 0 0 0 76.605651 0v-288.547954a38.302826 38.302826 0 0 0-38.302825-38.302826zM250.519376 368.766328a38.302826 38.302826 0 0 0-37.792121 38.302826 38.302826 38.302826 0 1 0 38.302826-38.302826zM466.547313 315.142372v472.912221a38.302826 38.302826 0 1 0 76.605652 0V315.142372a38.302826 38.302826 0 1 0-76.605652 0zM721.388781 630.757656V819.718263a38.302826 38.302826 0 1 0 76.605651 0v-188.960607a38.302826 38.302826 0 0 0-76.605651 0z" fill="#438CFF" p-id="2752"></path></svg>