<?xml version="1.0" standalone="no"?><!DOCTYPE svg PUBLIC "-//W3C//DTD SVG 1.1//EN" "http://www.w3.org/Graphics/SVG/1.1/DTD/svg11.dtd"><svg t="1595908961364" class="icon" viewBox="0 0 1024 1024" version="1.1" xmlns="http://www.w3.org/2000/svg" p-id="4765" xmlns:xlink="http://www.w3.org/1999/xlink" width="32" height="32"><defs><style type="text/css"></style></defs><path d="M512 60.235294h481.882353v60.235294H512zM30.117647 963.764706h963.764706v60.235294H30.117647zM512 662.588235h481.882353v60.235294H512zM512 361.411765h481.882353v60.235294H512z" fill="#4D4D4D" p-id="4766"></path><path d="M210.823529 0L30.117647 180.705882h361.411765L210.823529 0z" fill="#05AFC8" p-id="4767"></path><path d="M150.588235 180.705882m2.409412 0l115.651765 0q2.409412 0 2.409412 2.409412l0 115.651765q0 2.409412-2.409412 2.409412l-115.651765 0q-2.409412 0-2.409412-2.409412l0-115.651765q0-2.409412 2.409412-2.409412Z" fill="#05AFC8" p-id="4768"></path><path d="M210.823529 783.058824l180.705883-180.705883H30.117647l180.705882 180.705883z" fill="#05AFC8" p-id="4769"></path><path d="M271.058824 602.352941m-2.409412 0l-115.651765 0q-2.409412 0-2.409412-2.409412l0-115.651764q0-2.409412 2.409412-2.409412l115.651765 0q2.409412 0 2.409412 2.409412l0 115.651764q0 2.409412-2.409412 2.409412Z" fill="#05AFC8" p-id="4770"></path></svg>