<?xml version="1.0" standalone="no"?><!DOCTYPE svg PUBLIC "-//W3C//DTD SVG 1.1//EN" "http://www.w3.org/Graphics/SVG/1.1/DTD/svg11.dtd"><svg t="1595060890871" class="icon" viewBox="0 0 1024 1024" version="1.1" xmlns="http://www.w3.org/2000/svg" p-id="3445" xmlns:xlink="http://www.w3.org/1999/xlink" width="128" height="128"><defs><style type="text/css"></style></defs><path d="M665.6 396.8h-256c-12.8 0-25.6-6.4-25.6-19.2s6.4-19.2 19.2-19.2h249.6c12.8 0 19.2 6.4 19.2 19.2s0 19.2-6.4 19.2zM665.6 531.2h-256c-12.8 0-25.6-12.8-25.6-25.6s6.4-19.2 19.2-19.2h249.6c12.8 0 19.2 6.4 19.2 19.2 12.8 12.8 0 25.6-6.4 25.6zM665.6 665.6h-256c-12.8 0-19.2-6.4-19.2-19.2s6.4-19.2 19.2-19.2h249.6c12.8 0 19.2 6.4 19.2 19.2s-6.4 19.2-12.8 19.2z" fill="#4E8CEE" p-id="3446"></path><path d="M780.8 851.2H326.4c-64 0-115.2-44.8-115.2-108.8v-32c0-12.8 12.8-19.2 25.6-19.2s25.6 6.4 25.6 19.2v32c0 32 32 64 70.4 64h403.2c38.4 0 70.4-32 70.4-64V595.2c0-12.8 12.8-19.2 25.6-19.2s25.6 6.4 25.6 19.2v147.2c-12.8 64-12.8 108.8-76.8 108.8z m-550.4-256c-12.8 0-25.6-6.4-25.6-19.2V441.6c0-12.8 12.8-19.2 25.6-19.2 12.8-6.4 25.6 6.4 25.6 19.2V576c0 6.4-12.8 19.2-25.6 19.2z m595.2-153.6c-12.8 0-25.6-6.4-25.6-19.2V275.2c0-32-32-64-70.4-64H326.4c-38.4 0-70.4 25.6-70.4 64v32c0 12.8-12.8 19.2-25.6 19.2s-25.6-6.4-25.6-19.2v-32c0-57.6 51.2-108.8 121.6-108.8h403.2c64 0 115.2 44.8 115.2 108.8v147.2c0 6.4-6.4 19.2-19.2 19.2z" fill="#4E8CEE" p-id="3447"></path><path d="M313.6 396.8H211.2c-12.8 0-25.6-6.4-25.6-19.2s12.8-19.2 25.6-19.2h102.4c12.8 0 25.6 6.4 25.6 19.2s-6.4 19.2-25.6 19.2zM313.6 665.6H211.2c-12.8 0-25.6-6.4-25.6-19.2s12.8-19.2 25.6-19.2h102.4c12.8 0 25.6 6.4 25.6 19.2s-6.4 19.2-25.6 19.2zM812.8 595.2c-51.2 0-89.6-38.4-89.6-89.6s38.4-89.6 89.6-89.6c51.2 0 89.6 44.8 89.6 89.6 0 51.2-38.4 89.6-89.6 89.6z m0-128c-25.6 0-44.8 19.2-44.8 44.8s19.2 44.8 44.8 44.8c19.2 0 44.8-19.2 44.8-44.8 0-25.6-19.2-44.8-44.8-44.8z" fill="#BAD4FF" p-id="3448"></path></svg>