<?xml version="1.0" standalone="no"?><!DOCTYPE svg PUBLIC "-//W3C//DTD SVG 1.1//EN" "http://www.w3.org/Graphics/SVG/1.1/DTD/svg11.dtd"><svg t="1597042151873" class="icon" viewBox="0 0 1024 1024" version="1.1" xmlns="http://www.w3.org/2000/svg" p-id="4367" xmlns:xlink="http://www.w3.org/1999/xlink" width="32" height="32"><defs><style type="text/css"></style></defs><path d="M505.6 518.4m-275.2 0a275.2 275.2 0 1 0 550.4 0 275.2 275.2 0 1 0-550.4 0Z" fill="#68D279" p-id="4368"></path><path d="M512 787.2c-6.4 0-12.8-6.4-12.8-12.8v-512c0-6.4 6.4-12.8 12.8-12.8s12.8 6.4 12.8 12.8v512c0 6.4-6.4 12.8-12.8 12.8zM499.2 768v-6.4c-57.6-64-96-147.2-96-243.2s38.4-179.2 96-243.2v-6.4c0-12.8-12.8-12.8-19.2-6.4-57.6 64-96 153.6-96 256s38.4 192 96 256c6.4 12.8 19.2 6.4 19.2-6.4z" fill="#5DBA68" p-id="4369"></path><path d="M518.4 774.4V768c57.6-64 96-147.2 96-243.2s-32-179.2-89.6-243.2v-6.4c0-12.8 12.8-12.8 19.2-6.4 57.6 64 96 153.6 96 256s-38.4 192-96 256c-12.8 6.4-25.6 0-25.6-6.4z" fill="#5DBA68" p-id="4370"></path><path d="M755.2 524.8h-6.4c-64 57.6-147.2 96-243.2 96s-179.2-32-236.8-89.6h-6.4c-12.8 0-12.8 12.8-6.4 19.2 64 57.6 153.6 96 256 96s192-38.4 256-96c6.4-12.8 0-25.6-12.8-25.6zM755.2 524.8h-6.4c-64-57.6-147.2-96-243.2-96s-179.2 38.4-236.8 96h-6.4c-12.8 0-19.2-12.8-12.8-19.2 64-57.6 153.6-96 256-96s192 38.4 256 96c12.8 6.4 6.4 19.2-6.4 19.2z" fill="#5DBA68" p-id="4371"></path><path d="M505.6 236.8c-153.6 0-281.6 128-281.6 281.6s128 281.6 281.6 281.6 281.6-128 281.6-281.6-128-281.6-281.6-281.6z m0 524.8c-134.4 0-243.2-108.8-243.2-243.2s108.8-243.2 243.2-243.2 243.2 108.8 243.2 243.2-108.8 243.2-243.2 243.2z" fill="#5DBA68" p-id="4372"></path><path d="M102.4 454.4l-44.8-64C51.2 377.6 38.4 377.6 32 384c-6.4 0-12.8 12.8-6.4 25.6l76.8 121.6c6.4 6.4 12.8 12.8 25.6 12.8s19.2-12.8 19.2-19.2V512c0-204.8 166.4-371.2 371.2-371.2 160 0 294.4 102.4 345.6 243.2 6.4 6.4 12.8 12.8 25.6 12.8s19.2-12.8 12.8-25.6c-57.6-160-211.2-268.8-384-268.8C300.8 96 128 256 102.4 454.4zM915.2 569.6L960 640c6.4 6.4 19.2 12.8 25.6 6.4 6.4-6.4 12.8-19.2 6.4-25.6l-76.8-121.6c-6.4-6.4-12.8-12.8-25.6-12.8s-19.2 12.8-19.2 19.2v12.8c0 204.8-166.4 371.2-371.2 371.2-160 0-294.4-102.4-345.6-243.2 0-12.8-12.8-19.2-19.2-12.8-12.8 0-19.2 12.8-12.8 25.6 57.6 160 211.2 268.8 384 268.8 204.8 0 377.6-153.6 409.6-358.4z" fill="#5B8FD9" p-id="4373"></path></svg>