<?xml version="1.0" standalone="no"?><!DOCTYPE svg PUBLIC "-//W3C//DTD SVG 1.1//EN" "http://www.w3.org/Graphics/SVG/1.1/DTD/svg11.dtd"><svg t="1597396280256" class="icon" viewBox="0 0 1024 1024" version="1.1" xmlns="http://www.w3.org/2000/svg" p-id="2854" xmlns:xlink="http://www.w3.org/1999/xlink" width="32" height="32"><defs><style type="text/css"></style></defs><path d="M265.28 227.84a44.16 44.16 0 0 0-29.76 11.2 421.44 421.44 0 1 0 696.32 354.24c0-11.2 1.6-22.72 1.6-36.48a416 416 0 0 0-99.2-271.04 427.2 427.2 0 0 0-160-118.08l-4.8-1.92V59.2a14.4 14.4 0 0 0-8.32-13.12 14.72 14.72 0 0 0-15.36 0l-209.92 152.96a15.04 15.04 0 0 0 0 24l208.64 151.68a15.04 15.04 0 0 0 23.68-11.84V264.64l11.84 7.04a342.72 342.72 0 0 1 85.44 71.68A331.84 331.84 0 1 1 294.72 306.88a45.44 45.44 0 0 0 4.48-64 44.8 44.8 0 0 0-33.92-15.04z" fill="" p-id="2855"></path><path d="M512 458.24a108.8 108.8 0 1 0 108.8 108.8 108.8 108.8 0 0 0-108.8-108.8z" fill="" p-id="2856"></path></svg>