<?xml version="1.0" standalone="no"?><!DOCTYPE svg PUBLIC "-//W3C//DTD SVG 1.1//EN" "http://www.w3.org/Graphics/SVG/1.1/DTD/svg11.dtd"><svg t="1597042044143" class="icon" viewBox="0 0 1024 1024" version="1.1" xmlns="http://www.w3.org/2000/svg" p-id="1588" xmlns:xlink="http://www.w3.org/1999/xlink" width="32" height="32"><defs><style type="text/css"></style></defs><path d="M145.935253 0a15.786009 15.786009 0 0 0-15.743344 15.786009v832.647973c24.617641-63.485355 66.429232-154.318903 133.882421-278.601725 243.189867-447.128036 275.060539-492.224824 401.732595-492.224824 66.557227 0 133.711762 30.036082 177.144619 83.409858A339.697846 339.697846 0 0 0 559.016708 0z m542.697387 108.539478c-50.771218 0.426649-96.294654 19.881838-115.10987 63.912003-41.256948 96.25199 69.28778 203.383526 117.627099 194.893213 61.52277-10.879547-10.879547-152.014999-10.879547-152.014999 94.07608 177.315279 72.402317 123.04554-97.702596 285.854756S238.774051 1007.744677 213.431107 1022.16541a20.351152 20.351152 0 0 1-3.413191 1.83459h667.150869a15.914004 15.914004 0 0 0 14.079413-22.95371l-174.414066-345.244282a15.786009 15.786009 0 0 1 6.143744-20.820466A339.612516 339.612516 0 0 0 893.850756 340.039165a337.863256 337.863256 0 0 0-43.944835-167.246365c-39.550352-40.616974-103.67568-64.679972-161.230616-64.253322z" p-id="1589"></path></svg>