<?xml version="1.0" standalone="no"?><!DOCTYPE svg PUBLIC "-//W3C//DTD SVG 1.1//EN" "http://www.w3.org/Graphics/SVG/1.1/DTD/svg11.dtd"><svg t="1594980603428" class="icon" viewBox="0 0 1024 1024" version="1.1" xmlns="http://www.w3.org/2000/svg" p-id="3320" xmlns:xlink="http://www.w3.org/1999/xlink" width="128" height="128"><defs><style type="text/css"></style></defs><path d="M512 1024c-282.304 0-512-229.696-512-512s229.696-512 512-512 512 229.696 512 512S794.304 1024 512 1024zM512 48.768C256.576 48.768 48.768 256.576 48.768 512S256.576 975.168 512 975.168 975.168 767.424 975.168 512 767.424 48.768 512 48.768z" p-id="3321" fill="#0e932e"></path><path d="M806.336 478.912c0 0-423.36-238.976-427.328-239.616C339.52 232.64 328.256 261.632 327.04 289.536L326.016 290.368c0 0 2.496 465.216 3.904 468.928 11.648 31.296 45.76 31.296 70.144 17.664l0.64 0.256c0 0 392.64-226.944 395.84-229.504C817.344 530.624 836.48 505.664 806.336 478.912z" p-id="3322" fill="#0e932e"></path></svg>