<?xml version="1.0" standalone="no"?><!DOCTYPE svg PUBLIC "-//W3C//DTD SVG 1.1//EN" "http://www.w3.org/Graphics/SVG/1.1/DTD/svg11.dtd"><svg t="1595060870424" class="icon" viewBox="0 0 1027 1024" version="1.1" xmlns="http://www.w3.org/2000/svg" p-id="2674" xmlns:xlink="http://www.w3.org/1999/xlink" width="128.375" height="128"><defs><style type="text/css"></style></defs><path d="M126.130201 900.941555a5.983099 5.983099 0 0 1-4.20434-10.187439l293.737832-293.818686a5.983099 5.983099 0 1 1 8.085269 8.08527l-293.414421 294.142096a5.983099 5.983099 0 0 1-4.20434 1.778759zM82.712305 849.43839a5.983099 5.983099 0 0 1-4.20434-10.18744l338.853635-338.934488a5.983099 5.983099 0 0 1 8.085269 8.08527l-338.530224 339.257898a5.983099 5.983099 0 0 1-4.20434 1.77876zM47.379678 789.849955a5.983099 5.983099 0 0 1-4.20434-10.187439L416.957336 405.880517a5.983099 5.983099 0 0 1 8.08527 8.08527L51.664871 788.152049a5.983099 5.983099 0 0 1-4.285193 1.697906zM21.345111 721.044314a5.983099 5.983099 0 0 1-4.20434-10.18744l393.429203-393.429202a5.983099 5.983099 0 0 1 8.085269 8.085269L25.549451 719.588965a5.983099 5.983099 0 0 1-4.20434 1.455349zM11.642788 635.825575a5.983099 5.983099 0 0 1-4.20434-10.187439l404.263463-404.263463a5.983099 5.983099 0 1 1 8.08527 8.085269l-404.263464 404.263463a5.983099 5.983099 0 0 1-3.880929 2.10217zM11.40023 541.227925a5.983099 5.983099 0 0 1-4.20434-10.187439L344.10906 194.046463a5.983099 5.983099 0 0 1 8.085269 8.085269L15.60457 539.449166a5.983099 5.983099 0 0 1-4.20434 1.778759z" fill="#69494D" p-id="2675"></path><path d="M421.161676 1023.999353a421.161676 421.161676 0 1 1 0-842.323352h0.404264a5.983099 5.983099 0 0 1 5.983099 5.983099v409.195478h408.791214a5.983099 5.983099 0 0 1 5.9831 5.983099 420.434002 420.434002 0 0 1-421.161677 421.161676zM415.663693 194.046463a409.438036 409.438036 0 1 0 414.693461 414.774313H421.646792a5.983099 5.983099 0 0 1-5.983099-5.983099z" fill="#69494D" p-id="2676"></path><path d="M600.81636 24.255808v399.008038h398.522922A398.846333 398.846333 0 0 0 600.81636 24.255808z" fill="#EE6060" p-id="2677"></path><path d="M1020.280129 498.618556H537.266143a7.5193 7.5193 0 0 1-7.5193-7.5193V7.5193a7.5193 7.5193 0 0 1 7.5193-7.5193 490.614139 490.614139 0 0 1 490.533287 491.018403 7.5193 7.5193 0 0 1-7.519301 7.600153z m-475.413833-15.119454h467.81368A475.494686 475.494686 0 0 0 544.866296 15.200306z" fill="#69494D" p-id="2678"></path></svg>