<?xml version="1.0" standalone="no"?><!DOCTYPE svg PUBLIC "-//W3C//DTD SVG 1.1//EN" "http://www.w3.org/Graphics/SVG/1.1/DTD/svg11.dtd"><svg t="1594980475413" class="icon" viewBox="0 0 1024 1024" version="1.1" xmlns="http://www.w3.org/2000/svg" p-id="1156" width="128" height="128" xmlns:xlink="http://www.w3.org/1999/xlink"><defs><style type="text/css"></style></defs><path d="M512 512m-512 0a512 512 0 1 0 1024 0 512 512 0 1 0-1024 0Z" fill="#52C41A" p-id="1157"></path><path d="M178.614857 557.860571a42.496 42.496 0 0 1 60.123429-60.050285l85.942857 87.625143a42.496 42.496 0 0 1-60.050286 60.123428L178.614857 557.860571z m561.005714-250.148571a42.496 42.496 0 1 1 65.097143 54.637714L394.459429 725.577143a42.496 42.496 0 0 1-65.097143-54.637714l410.112-363.373715z" fill="#FFFFFF" p-id="1158"></path></svg>