<?xml version="1.0" standalone="no"?><!DOCTYPE svg PUBLIC "-//W3C//DTD SVG 1.1//EN" "http://www.w3.org/Graphics/SVG/1.1/DTD/svg11.dtd"><svg t="1597120726047" class="icon" viewBox="0 0 1024 1024" version="1.1" xmlns="http://www.w3.org/2000/svg" p-id="1215" width="32" height="32" xmlns:xlink="http://www.w3.org/1999/xlink"><defs><style type="text/css"></style></defs><path d="M183.04 382.08l320 149.333333a21.824 21.824 0 0 0 17.92 0l320-149.333333c7.68-3.626667 12.373333-11.093333 12.373333-19.413333s-4.693333-15.786667-12.373333-19.413334l-320-149.333333c-5.76-2.56-12.373333-2.56-18.133333 0l-320 149.333333a21.482667 21.482667 0 0 0 0.213333 38.826667zM512 236.8L781.653333 362.666667 512 488.533333 242.346667 362.666667 512 236.8z" p-id="1216"></path><path d="M823.04 492.586667L512 637.866667 200.96 492.8c-10.666667-4.906667-23.253333-0.426667-28.373333 10.24-4.906667 10.666667-0.426667 23.466667 10.24 28.373333l320 149.333334c2.986667 1.28 6.186667 1.92 9.173333 1.92s6.186667-0.64 8.96-1.92l320-149.333334c10.666667-4.906667 15.36-17.706667 10.24-28.373333a21.226667 21.226667 0 0 0-28.16-10.453333z" p-id="1217"></path><path d="M823.04 641.92L512 787.2 200.96 642.133333c-10.666667-4.906667-23.253333-0.426667-28.373333 10.24-4.906667 10.666667-0.426667 23.466667 10.24 28.373334l320 149.333333c2.986667 1.28 6.186667 1.92 9.173333 1.92s6.186667-0.64 8.96-1.92l320-149.333333c10.666667-4.906667 15.36-17.706667 10.24-28.373334a21.226667 21.226667 0 0 0-28.16-10.453333z" p-id="1218"></path></svg>