<?xml version="1.0" standalone="no"?><!DOCTYPE svg PUBLIC "-//W3C//DTD SVG 1.1//EN" "http://www.w3.org/Graphics/SVG/1.1/DTD/svg11.dtd"><svg t="1597042070000" class="icon" viewBox="0 0 1024 1024" version="1.1" xmlns="http://www.w3.org/2000/svg" p-id="2379" xmlns:xlink="http://www.w3.org/1999/xlink" width="32" height="32"><defs><style type="text/css"></style></defs><path d="M992 0H32C12.8 0 0 12.8 0 32v960c0 19.2 12.8 32 32 32h960c19.2 0 32-12.8 32-32V32c0-19.2-12.8-32-32-32zM960 64v192H64V64h896zM64 960V320h896v640H64z" fill="#14ADC4" p-id="2380"></path><path d="M800 441.6H512c-19.2 0-32 12.8-32 32s12.8 32 32 32h288c19.2 0 32-12.8 32-32s-19.2-32-32-32zM800 620.8h-576c-12.8 0-32 12.8-32 32s12.8 32 32 32h569.6c19.2 0 32-12.8 32-32s-12.8-32-25.6-32zM800 793.6h-576c-19.2 0-32 12.8-32 32s12.8 32 32 32h569.6c19.2 0 32-12.8 32-32s-12.8-32-25.6-32z" fill="#14ADC4" p-id="2381"></path><path d="M198.4 160m-51.2 0a51.2 51.2 0 1 0 102.4 0 51.2 51.2 0 1 0-102.4 0Z" fill="#14ADC4" p-id="2382"></path><path d="M364.8 160m-51.2 0a51.2 51.2 0 1 0 102.4 0 51.2 51.2 0 1 0-102.4 0Z" fill="#14ADC4" p-id="2383"></path><path d="M524.8 160m-51.2 0a51.2 51.2 0 1 0 102.4 0 51.2 51.2 0 1 0-102.4 0Z" fill="#14ADC4" p-id="2384"></path></svg>