<?xml version="1.0" standalone="no"?><!DOCTYPE svg PUBLIC "-//W3C//DTD SVG 1.1//EN" "http://www.w3.org/Graphics/SVG/1.1/DTD/svg11.dtd"><svg t="1595911098669" class="icon" viewBox="0 0 1024 1024" version="1.1" xmlns="http://www.w3.org/2000/svg" p-id="8569" xmlns:xlink="http://www.w3.org/1999/xlink" width="16" height="16"><defs><style type="text/css"></style></defs><path d="M514.56 957.44a442.88 442.88 0 1 1 442.88-442.88 443.392 443.392 0 0 1-442.88 442.88z m0-814.32576a371.44576 371.44576 0 1 0 371.44576 371.44576A371.8656 371.8656 0 0 0 514.56 143.11424z" fill="#0e932e" p-id="8570"></path><path d="M693.82656 478.81728h-143.51872V335.29344a35.74272 35.74272 0 1 0-71.49056 0v143.52384H335.29344a35.74784 35.74784 0 0 0 0 71.49056h143.52384v143.51872a35.74272 35.74272 0 1 0 71.49056 0v-143.51872h143.51872a35.74784 35.74784 0 1 0 0-71.49056z" fill="#0e932e" p-id="8571"></path></svg>