<?xml version="1.0" standalone="no"?><!DOCTYPE svg PUBLIC "-//W3C//DTD SVG 1.1//EN" "http://www.w3.org/Graphics/SVG/1.1/DTD/svg11.dtd"><svg t="1597042091470" class="icon" viewBox="0 0 1024 1024" version="1.1" xmlns="http://www.w3.org/2000/svg" p-id="2531" xmlns:xlink="http://www.w3.org/1999/xlink" width="32" height="32"><defs><style type="text/css"></style></defs><path d="M432.128 174.08h-286.72c-34.816 0-61.44 26.624-61.44 61.44V552.96h348.16v-378.88z m40.96 0V552.96h348.16v-169.984c0-12.288 8.192-20.48 20.48-20.48s20.48 8.192 20.48 20.48v528.384c0 57.344-45.056 102.4-102.4 102.4h-614.4c-57.344 0-102.4-45.056-102.4-102.4v-675.84c0-57.344 45.056-102.4 102.4-102.4h448.512c12.288 0 20.48 8.192 20.48 20.48s-8.192 20.48-20.48 20.48h-120.832z m-40.96 798.72V593.92h-348.16v317.44c0 34.816 26.624 61.44 61.44 61.44h286.72z m40.96 0h286.72c34.816 0 61.44-26.624 61.44-61.44V593.92h-348.16v378.88z m346.112-839.68v-102.4c0-12.288 8.192-20.48 20.48-20.48s20.48 8.192 20.48 20.48v102.4h102.4c12.288 0 20.48 8.192 20.48 20.48s-8.192 20.48-20.48 20.48h-102.4v102.4c0 12.288-8.192 20.48-20.48 20.48s-20.48-8.192-20.48-20.48v-102.4h-102.4c-12.288 0-20.48-8.192-20.48-20.48s8.192-20.48 20.48-20.48h102.4z" p-id="2532"></path></svg>