<?xml version="1.0" standalone="no"?><!DOCTYPE svg PUBLIC "-//W3C//DTD SVG 1.1//EN" "http://www.w3.org/Graphics/SVG/1.1/DTD/svg11.dtd"><svg t="1595908886510" class="icon" viewBox="0 0 1024 1024" version="1.1" xmlns="http://www.w3.org/2000/svg" p-id="3150" xmlns:xlink="http://www.w3.org/1999/xlink" width="32" height="32"><defs><style type="text/css"></style></defs><path d="M512 104c55.1 0 108.5 10.8 158.8 32 48.6 20.5 92.2 50 129.7 87.5s66.9 81.1 87.5 129.7c21.3 50.3 32 103.7 32 158.8s-10.8 108.5-32 158.8c-20.5 48.6-50 92.2-87.5 129.7s-81.1 66.9-129.7 87.5c-50.3 21.3-103.7 32-158.8 32s-108.5-10.8-158.8-32c-48.6-20.5-92.2-50-129.7-87.5s-66.9-81.1-87.5-129.7c-21.3-50.3-32-103.7-32-158.8s10.8-108.5 32-158.8c20.5-48.6 50-92.2 87.5-129.7s81.1-66.9 129.7-87.5c50.3-21.2 103.7-32 158.8-32m0-40C264.6 64 64 264.6 64 512s200.6 448 448 448 448-200.6 448-448S759.4 64 512 64z" fill="#3E4FB7" p-id="3151"></path><path d="M314.4 380.7h401.5v15H314.4zM314.4 457.2h401.5v15H314.4zM314.4 534.4h401.5v15H314.4zM314.4 611.6h401.5v15H314.4z" fill="#3E4FB7" p-id="3152"></path><path d="M391.5 302.9h15v401.5h-15zM468.7 302.9h15v401.5h-15zM545.9 302.9h15v401.5h-15zM623 302.9h15v401.5h-15z" fill="#3E4FB7" p-id="3153"></path><path d="M310.4 244.7h15v533h-15z" fill="#3E4FB7" p-id="3154"></path><path d="M271.2 297l-11.1-10.5 58.2-58.2 58.2 58.2-11.1 10.5-47.1-47.1z" fill="#3E4FB7" p-id="3155"></path><path d="M246.3 697.9h533v15h-533z" fill="#3E4FB7" p-id="3156"></path><path d="M737.5 763.9L727 752.8l47.1-47.1-47.1-47.1 10.5-11.1 58.2 58.2z" fill="#3E4FB7" p-id="3157"></path><path d="M644.6 663.2c-76.5 0-138.6-23.5-185.1-70.6-48.4-49-69.3-115.1-78.5-162.2-9.8-50.4-8.5-88.9-8.5-90.2l15 0.7c0 1.3-5.2 152.4 83.1 241.3 45.1 45.8 106.6 67.4 183.1 65.4l0.7 15c-3.9 0.6-7.2 0.6-9.8 0.6z" fill="#3E4FB7" p-id="3158"></path><path d="M389.6 663.2h-9.8l0.7-15c76.5 2 138.6-20.3 183.1-65.4 87.6-88.9 83.1-240 83.1-241.3l15-0.7c0 1.3 1.3 39.9-8.5 90.2-9.2 47.1-30.1 113.1-78.5 162.2-46.5 46.5-108.6 70-185.1 70z" fill="#3E4FB7" p-id="3159"></path></svg>