<?xml version="1.0" standalone="no"?><!DOCTYPE svg PUBLIC "-//W3C//DTD SVG 1.1//EN" "http://www.w3.org/Graphics/SVG/1.1/DTD/svg11.dtd"><svg t="1595060919055" class="icon" viewBox="0 0 1024 1024" version="1.1" xmlns="http://www.w3.org/2000/svg" p-id="4395" xmlns:xlink="http://www.w3.org/1999/xlink" width="128" height="128"><defs><style type="text/css"></style></defs><path d="M920.5248 942.08H148.61824A82.12992 82.12992 0 0 1 66.56 860.06272V108.57984a36.9152 36.9152 0 0 1 73.8304 0v751.48288a8.23808 8.23808 0 0 0 8.22784 8.22272H920.5248a36.89984 36.89984 0 1 1 0 73.79456zM230.912 643.44064a36.89984 36.89984 0 0 1-25.6-63.4624l220.3136-212.2496a36.9152 36.9152 0 0 1 51.712 0.47616l122.8288 122.77248 212.79744-207.96928a36.90496 36.90496 0 1 1 51.6096 52.76672l-238.89408 233.472a36.9152 36.9152 0 0 1-51.90144-0.29696L450.71872 445.99808 256.512 633.10336a36.77184 36.77184 0 0 1-25.6 10.33728z" fill="#595BB3" p-id="4396"></path><path d="M833.50016 489.56416l-199.3472 199.52128a22.9888 22.9888 0 0 1-31.08864-0.16384l-126.19776-119.61344a22.98368 22.98368 0 0 0-30.97088-0.27136L268.288 731.30496a20.82816 20.82816 0 0 0 15.36 36.03456H849.92a21.54496 21.54496 0 0 0 22.10816-21.03296l-0.96256-241.84832c-0.08704-18.51392-23.6032-27.83744-37.56544-14.89408z" fill="#F4CA1C" p-id="4397"></path></svg>