<?xml version="1.0" standalone="no"?><!DOCTYPE svg PUBLIC "-//W3C//DTD SVG 1.1//EN" "http://www.w3.org/Graphics/SVG/1.1/DTD/svg11.dtd"><svg t="1595908916610" class="icon" viewBox="0 0 1260 1024" version="1.1" xmlns="http://www.w3.org/2000/svg" p-id="3796" xmlns:xlink="http://www.w3.org/1999/xlink" width="39.375" height="32"><defs><style type="text/css"></style></defs><path d="M875.632259 508.010011C875.632259 508.010011 1100.740849 346.048357 1099.71727 211.408382 1098.772428 94.641667 999.327815 0 875.632259 0 751.857966 0 658.791036 94.877877 651.468511 211.408382 643.04367 346.048357 875.632259 508.010011 875.632259 508.010011L875.632259 508.010011 875.632259 508.010011ZM871.931628 109.916611C926.102565 109.916611 969.958978 152.591972 969.958978 205.188173 969.958978 257.784373 926.102565 300.459734 871.931628 300.459734 817.760691 300.459734 773.825541 257.784373 773.825541 205.188173 773.825541 152.591972 817.760691 109.916611 871.931628 109.916611L871.931628 109.916611 871.931628 109.916611ZM590.44747 689.104715C598.242416 677.845348 605.09252 666.034824 611.076519 653.830616 630.130831 617.296728 641.783881 580.290419 641.468934 544.701373 640.130408 384.156982 498.167908 254.005006 321.324993 254.005006 320.931309 254.005006 320.537625 254.005006 320.143941 254.005006 319.67152 254.005006 319.277836 254.005006 318.884152 254.005006 142.749868 254.005006 0 381.794877 0 539.504742 0 547.850846 0.393684 556.039476 1.181052 564.228106 2.125894 579.503051 5.117894 594.935469 9.92084 610.446624 18.896839 641.862618 33.699362 671.152718 53.226095 697.372081 144.009658 833.586793 321.324993 952.55814 321.324993 952.55814 321.324993 952.55814 500.057592 828.783847 590.44747 689.104715L590.44747 689.104715 590.44747 689.104715ZM316.049626 635.012514C243.847955 635.012514 185.267755 578.164525 185.267755 508.010011 185.267755 437.855498 243.847955 381.007508 316.049626 381.007508 388.330033 381.007508 446.831496 437.855498 446.831496 508.010011 446.831496 578.164525 388.330033 635.012514 316.049626 635.012514L316.049626 635.012514 316.049626 635.012514ZM1165.619995 708.316501C841.696686 648.712722 904.607412 571.471894 904.607412 571.471894L839.177108 571.471894C804.13922 773.431857 1362.619537 699.497976 1145.463367 870.514365 953.266771 1021.925285 497.065592 889.01752 497.065592 889.01752L431.714025 952.55814C1161.131996 1191.603148 1417.420369 754.692492 1165.619995 708.316501L1165.619995 708.316501 1165.619995 708.316501Z" p-id="3797"></path></svg>