<?xml version="1.0" standalone="no"?><!DOCTYPE svg PUBLIC "-//W3C//DTD SVG 1.1//EN" "http://www.w3.org/Graphics/SVG/1.1/DTD/svg11.dtd"><svg t="1597120978830" class="icon" viewBox="0 0 1024 1024" version="1.1" xmlns="http://www.w3.org/2000/svg" p-id="3051" xmlns:xlink="http://www.w3.org/1999/xlink" width="32" height="32"><defs><style type="text/css"></style></defs><path d="M814.4 1017.6c3.2 0 6.4 0 9.6-1.6-9.6 1.6-17.6 1.6-27.2 1.6h17.6zM768 699.2c-24 0-43.2 19.2-43.2 43.2 0 24 19.2 43.2 43.2 43.2 24 0 43.2-19.2 43.2-43.2 0-24-19.2-43.2-43.2-43.2z m28.8-121.6c-108.8 0-195.2 88-195.2 195.2S688 966.4 796.8 966.4C904 966.4 992 880 992 771.2c0-107.2-88-193.6-195.2-193.6z m94.4 308.8c-6.4 0-11.2-3.2-16-6.4l-64-62.4c-12.8 8-27.2 12.8-43.2 12.8-48 0-86.4-38.4-86.4-86.4 0-48 38.4-86.4 86.4-86.4s86.4 38.4 86.4 86.4c0 16-4.8 30.4-12.8 43.2l64 62.4c3.2 3.2 6.4 9.6 6.4 16 0 11.2-9.6 20.8-20.8 20.8zM208 184c24 0 51.2-27.2 51.2-51.2V57.6c0-24-16-51.2-51.2-51.2-28.8 0-51.2 27.2-51.2 51.2v75.2c1.6 24 28.8 51.2 51.2 51.2z m227.2 0c41.6 0 51.2-27.2 51.2-51.2V57.6c0-24-14.4-51.2-51.2-51.2C400 6.4 384 33.6 384 57.6v75.2c1.6 24 19.2 51.2 51.2 51.2z m227.2 0c33.6 0 51.2-27.2 51.2-51.2V57.6c0-24-17.6-51.2-51.2-51.2-28.8 0-51.2 27.2-51.2 51.2v75.2c1.6 24 28.8 51.2 51.2 51.2z m152 832c3.2 0 6.4 0 9.6-1.6-9.6 1.6-17.6 1.6-27.2 1.6h17.6zM552 772.8c0-134.4 110.4-244.8 244.8-244.8 24 0 48 3.2 70.4 9.6l-1.6-379.2c0-24-27.2-51.2-51.2-51.2h-51.2v51.2c0 48-52.8 75.2-100.8 75.2s-100.8-28.8-100.8-75.2V107.2h-25.6v51.2c0 48-52.8 75.2-100.8 75.2-76.8 0-100.8-52.8-100.8-100.8V107.2h-25.6v25.6c0 48-38.4 100.8-104 100.8-48 0-99.2-35.2-99.2-100.8V107.2H83.2C59.2 107.2 32 134.4 32 158.4V960c0 24 27.2 57.6 51.2 57.6h713.6c-136-1.6-244.8-110.4-244.8-244.8z m-368-387.2s526.4 1.6 528 0c24-1.6 52.8 14.4 52.8 51.2 0 33.6-27.2 51.2-51.2 51.2H184c-24 0-51.2-12.8-51.2-51.2 0-33.6 27.2-51.2 51.2-51.2z m227.2 504H184c-19.2 0-51.2-11.2-51.2-51.2 0-30.4 30.4-52.8 51.2-52.8l227.2 3.2c19.2 0 51.2 11.2 51.2 51.2-1.6 30.4-32 49.6-51.2 49.6zM460.8 688H184c-24 0-51.2-16-51.2-51.2 0-38.4 27.2-51.2 51.2-51.2h278.4c24 0 51.2 19.2 51.2 51.2-1.6 25.6-28.8 51.2-52.8 51.2z" fill="#2C2C2C" p-id="3052"></path></svg>