<?xml version="1.0" standalone="no"?><!DOCTYPE svg PUBLIC "-//W3C//DTD SVG 1.1//EN" "http://www.w3.org/Graphics/SVG/1.1/DTD/svg11.dtd"><svg t="1595060843946" class="icon" viewBox="0 0 1024 1024" version="1.1" xmlns="http://www.w3.org/2000/svg" p-id="1889" xmlns:xlink="http://www.w3.org/1999/xlink" width="128" height="128"><defs><style type="text/css"></style></defs><path d="M973.50137 189.369863C973.50137 72.942466 739.243836 11.221918 507.791781 11.221918 288.964384 11.221918 68.734247 65.928767 43.484932 169.731507c-4.208219 5.610959-5.610959 12.624658-5.610959 19.638356v688.745205c0 8.416438 2.805479 16.832877 9.819178 23.846576 4.208219 4.208219 112.219178 115.024658 464.306849 115.024657 347.879452 0 441.863014-105.205479 451.682192-117.830137 5.610959-5.610959 7.013699-14.027397 7.013698-22.443835V213.216438c1.40274-8.416438 2.805479-15.430137 2.80548-23.846575zM897.753425 648.065753c-1.40274 0-1.40274 1.40274-2.80548 1.40274 0 0-1.40274 0-1.40274 1.40274-1.40274 1.40274-2.805479 1.40274-4.208219 2.805479l-1.402739 1.40274c-1.40274 0-1.40274 1.40274-2.80548 1.40274 0 0-1.40274 1.40274-2.805479 1.40274s-1.40274 1.40274-2.80548 1.402739-1.40274 1.40274-2.805479 1.40274-2.805479 1.40274-4.208219 1.40274c-1.40274 0-1.40274 1.40274-2.80548 1.402739-1.40274 1.40274-2.805479 1.40274-4.208219 2.80548-1.40274 0-1.40274 1.40274-2.805479 1.40274-2.805479 1.40274-4.208219 2.805479-7.013699 4.208219-1.40274 0-1.40274 1.40274-2.80548 1.402739-1.40274 1.40274-4.208219 1.40274-5.610958 2.80548-1.40274 0-2.805479 1.40274-4.20822 1.40274-1.40274 1.40274-4.208219 1.40274-5.610959 2.805479-1.40274 0-2.805479 1.40274-4.208219 1.40274-1.40274 1.40274-4.208219 1.40274-5.610959 2.805479-1.40274 0-2.805479 1.40274-4.208219 1.40274-2.805479 1.40274-5.610959 1.40274-8.416438 2.805479-1.40274 0-1.40274 0-2.80548 1.40274-4.208219 1.40274-7.013699 2.805479-11.221917 4.208219-1.40274 0-2.805479 1.40274-4.20822 1.40274-2.805479 1.40274-5.610959 1.40274-8.416438 2.80548-1.40274 0-2.805479 1.40274-5.610959 1.402739-2.805479 1.40274-5.610959 1.40274-8.416438 2.80548-1.40274 0-4.208219 1.40274-5.610959 1.402739-2.805479 1.40274-5.610959 1.40274-9.819178 2.80548-1.40274 0-2.805479 1.40274-5.610959 1.40274-4.208219 1.40274-8.416438 1.40274-12.624658 2.805479h-2.805479c-5.610959 1.40274-11.221918 2.805479-16.832877 2.80548-1.40274 0-4.208219 0-5.610959 1.402739-4.208219 1.40274-8.416438 1.40274-12.624657 2.80548-2.805479 0-4.208219 1.40274-7.013699 1.402739-4.208219 0-8.416438 1.40274-11.221918 1.40274-2.805479 0-4.208219 0-7.013698 1.40274-4.208219 0-8.416438 1.40274-12.624658 1.40274-2.805479 0-4.208219 0-7.013698 1.402739-5.610959 1.40274-12.624658 1.40274-18.235617 1.40274h-1.40274c-7.013699 0-14.027397 1.40274-21.041096 1.40274h-7.013698c-5.610959 0-11.221918 1.40274-15.430137 1.40274h-8.416439c-5.610959 0-9.819178 0-15.430137 1.402739H447.473973c-5.610959 0-11.221918 0-15.430137-1.402739h-8.416439c-5.610959 0-11.221918-1.40274-16.832876-1.40274h-7.013699c-7.013699 0-15.430137-1.40274-22.443836-1.40274h-2.805479c-5.610959 0-12.624658-1.40274-18.235617-1.40274-2.805479 0-4.208219 0-7.013698-1.402739-4.208219 0-9.819178-1.40274-14.027397-1.40274-2.805479 0-4.208219 0-7.013699-1.40274-4.208219 0-8.416438-1.40274-12.624658-1.40274-2.805479 0-4.208219 0-7.013698-1.402739-4.208219-1.40274-9.819178-1.40274-14.027398-2.80548-1.40274 0-2.805479 0-4.208219-1.402739-5.610959-1.40274-11.221918-2.805479-16.832876-2.80548-1.40274 0-2.805479 0-2.80548-1.40274-4.208219-1.40274-8.416438-1.40274-12.624657-2.805479-1.40274 0-2.805479-1.40274-5.610959-1.40274-2.805479-1.40274-7.013699-1.40274-9.819178-2.805479-1.40274 0-2.805479-1.40274-5.610959-1.40274-2.805479-1.40274-7.013699-1.40274-9.819178-2.805479-1.40274 0-2.805479-1.40274-4.20822-1.40274-4.208219-1.40274-7.013699-2.805479-11.221917-2.80548h-2.80548l-12.624657-4.208219c-1.40274 0-1.40274 0-2.80548-1.40274-2.805479-1.40274-5.610959-2.805479-8.416438-2.805479-1.40274 0-2.805479-1.40274-4.208219-1.40274-2.805479-1.40274-5.610959-1.40274-7.013699-2.805479-1.40274 0-2.805479-1.40274-2.805479-1.40274-2.805479-1.40274-4.208219-1.40274-7.013699-2.805479-1.40274 0-1.40274-1.40274-2.80548-1.40274l-8.416438-4.208219-8.416438-4.208219s-1.40274 0-1.40274-1.40274c-1.40274-1.40274-4.208219-1.40274-5.610959-2.80548-1.40274 0-1.40274-1.40274-2.805479-1.402739-1.40274-1.40274-2.805479-1.40274-4.208219-2.80548l-1.40274-1.402739c0 1.40274-1.40274 0-2.80548-1.40274 0 0-1.40274 0-1.402739-1.40274-4.208219-2.805479-7.013699-4.208219-9.819178-5.610959 0 0-1.40274 0-1.40274-1.40274-1.40274 0-1.40274-1.40274-2.80548-1.402739 0 0-1.40274 0-1.402739-1.40274 0 0-1.40274 0-1.40274-1.40274V504.986301s1.40274 1.40274 2.805479 1.40274l8.416439 4.208219c1.40274 0 2.805479 1.40274 4.208219 1.40274 2.805479 1.40274 7.013699 2.805479 9.819178 4.208219 1.40274 0 1.40274 1.40274 2.805479 1.40274 4.208219 1.40274 9.819178 4.208219 14.027398 5.610959 1.40274 0 2.805479 1.40274 4.208219 1.40274 4.208219 1.40274 7.013699 2.805479 11.221918 4.208219 1.40274 1.40274 4.208219 1.40274 7.013698 2.805479 4.208219 1.40274 7.013699 2.805479 11.221918 4.208219 2.805479 1.40274 4.208219 1.40274 7.013699 2.80548l12.624657 4.208219c2.805479 0 4.208219 1.40274 7.013699 1.40274 7.013699 1.40274 12.624658 4.208219 19.638356 5.610959h2.80548c5.610959 1.40274 12.624658 2.805479 18.235616 4.208219 2.805479 0 5.610959 1.40274 8.416438 1.40274 5.610959 1.40274 9.819178 2.805479 15.430137 2.805479 2.805479 0 5.610959 1.40274 9.819178 1.40274 5.610959 1.40274 11.221918 1.40274 16.832877 2.805479 2.805479 0 5.610959 1.40274 9.819178 1.40274 7.013699 1.40274 14.027397 1.40274 19.638356 2.805479 2.805479 0 4.208219 0 7.013699 1.40274 9.819178 1.40274 18.235616 2.805479 28.054794 2.805479 2.805479 0 5.610959 0 8.416439 1.40274 7.013699 1.40274 15.430137 1.40274 22.443835 1.40274 4.208219 0 7.013699 0 11.221918 1.40274 7.013699 0 14.027397 1.40274 21.041096 1.402739h12.624658c7.013699 0 15.430137 0 23.846575 1.40274h93.983562c7.013699 0 15.430137 0 22.443835-1.40274h12.624658c7.013699 0 14.027397-1.40274 21.041096-1.402739 4.208219 0 7.013699 0 11.221918-1.40274 7.013699 0 14.027397-1.40274 21.041095-1.40274 2.805479 0 5.610959 0 8.416439-1.40274 9.819178-1.40274 18.235616-1.40274 28.054794-2.805479h2.80548c8.416438-1.40274 15.430137-2.805479 23.846575-2.805479 2.805479 0 5.610959-1.40274 8.416438-1.40274 5.610959-1.40274 11.221918-1.40274 16.832877-2.80548 2.805479 0 5.610959-1.40274 8.416439-1.402739 5.610959-1.40274 9.819178-1.40274 14.027397-2.80548 2.805479 0 5.610959-1.40274 8.416438-1.402739 5.610959-1.40274 9.819178-2.805479 14.027397-2.80548 2.805479 0 4.208219-1.40274 7.013699-1.40274 7.013699-1.40274 12.624658-2.805479 19.638356-5.610959 1.40274 0 2.805479 0 2.80548-1.402739 5.610959-1.40274 9.819178-2.805479 15.430137-4.208219 1.40274 0 4.208219-1.40274 5.610959-1.40274 4.208219-1.40274 7.013699-2.805479 11.221917-4.208219 1.40274-1.40274 4.208219-1.40274 5.610959-2.80548 2.805479-1.40274 7.013699-2.805479 9.819178-4.208219 1.40274-1.40274 4.208219-1.40274 5.610959-2.805479 2.805479-1.40274 7.013699-2.805479 9.819178-4.20822 1.40274 0 2.805479-1.40274 4.208219-1.402739 4.208219-1.40274 8.416438-4.208219 12.624658-5.610959 1.40274 0 1.40274-1.40274 2.805479-1.40274 2.805479-1.40274 7.013699-2.805479 9.819179-4.208219h1.402739v138.871233c-4.208219 0-5.610959 1.40274-7.013698 1.402739 1.40274 0 0 0 0 0z m2.805479-224.438356c0 1.40274-1.40274 1.40274 0 0-1.40274 1.40274-1.40274 1.40274-2.805479 1.40274l-2.80548 2.805479c-1.40274 1.40274-2.805479 1.40274-4.208219 2.80548 0 0-1.40274 0-1.40274 1.40274-1.40274 1.40274-2.805479 1.40274-4.208219 2.805479l-1.40274 1.40274c-1.40274 0-2.805479 1.40274-2.805479 2.805479-1.40274 0-1.40274 1.40274-2.80548 1.40274-1.40274 1.40274-2.805479 1.40274-4.208219 2.805479-1.40274 0-1.40274 1.40274-2.805479 1.40274-1.40274 1.40274-2.805479 1.40274-5.610959 2.80548 0 0-1.40274 0-1.40274 1.402739-2.805479 1.40274-4.208219 2.805479-7.013698 4.20822-1.40274 0-1.40274 1.40274-2.80548 1.402739-1.40274 1.40274-4.208219 1.40274-5.610959 2.80548-1.40274 0-2.805479 1.40274-2.805479 1.402739-1.40274 1.40274-4.208219 1.40274-5.610959 2.80548-1.40274 0-2.805479 1.40274-4.208219 1.40274-1.40274 1.40274-4.208219 1.40274-7.013699 2.805479-1.40274 0-2.805479 1.40274-4.208219 1.40274-2.805479 1.40274-5.610959 1.40274-8.416438 2.805479-1.40274 0-1.40274 0-2.80548 1.40274-4.208219 1.40274-7.013699 2.805479-11.221918 4.208219-1.40274 0-2.805479 1.40274-4.208219 1.40274-2.805479 1.40274-5.610959 1.40274-8.416438 2.805479-1.40274 0-2.805479 1.40274-5.610959 1.40274-2.805479 1.40274-5.610959 1.40274-8.416439 2.805479-1.40274 0-4.208219 1.40274-5.610958 1.40274-2.805479 1.40274-5.610959 1.40274-9.819178 2.80548-1.40274 0-2.805479 1.40274-5.610959 1.402739-4.208219 1.40274-8.416438 1.40274-12.624658 2.80548h-2.805479c-5.610959 1.40274-11.221918 2.805479-16.832877 2.805479-1.40274 0-4.208219 0-5.610959 1.40274-4.208219 1.40274-8.416438 1.40274-12.624658 2.805479-2.805479 0-4.208219 1.40274-7.013698 1.40274-4.208219 0-8.416438 1.40274-11.221918 1.40274-2.805479 0-4.208219 0-7.013699 1.40274-4.208219 0-8.416438 1.40274-12.624657 1.402739-2.805479 0-4.208219 0-7.013699 1.40274-5.610959 1.40274-12.624658 1.40274-19.638356 1.40274h-1.40274c-7.013699 0-14.027397 1.40274-22.443835 1.40274h-7.013699c-5.610959 0-9.819178 1.40274-15.430137 1.402739h-8.416438c-5.610959 0-9.819178 0-15.430137 1.40274H446.071233c-5.610959 0-11.221918 0-15.430137-1.40274h-8.416438c-5.610959 0-11.221918-1.40274-16.832877-1.402739h-7.013699c-7.013699 0-15.430137-1.40274-22.443835-1.40274h-2.80548c-5.610959 0-12.624658-1.40274-18.235616-1.40274-2.805479 0-4.208219 0-7.013699-1.40274-4.208219 0-8.416438-1.40274-14.027397-1.402739-2.805479 0-4.208219 0-7.013699-1.40274-4.208219 0-8.416438-1.40274-12.624657-1.40274-2.805479 0-4.208219 0-7.013699-1.40274-4.208219-1.40274-8.416438-1.40274-14.027397-2.805479-1.40274 0-2.805479 0-4.208219-1.40274-5.610959-1.40274-11.221918-2.805479-16.832877-2.805479-1.40274 0-2.805479 0-4.208219-1.40274-4.208219-1.40274-8.416438-1.40274-12.624658-2.805479-1.40274 0-4.208219-1.40274-5.610959-1.40274-2.805479-1.40274-7.013699-1.40274-9.819178-2.80548-1.40274 0-4.208219-1.40274-5.610959-1.402739-2.805479-1.40274-7.013699-1.40274-9.819178-2.80548-1.40274 0-2.805479-1.40274-4.208219-1.402739-4.208219-1.40274-7.013699-1.40274-9.819178-2.80548-1.40274 0-1.40274 0-2.80548-1.40274l-12.624657-4.208219c-1.40274 0-2.805479-1.40274-2.80548-1.40274-2.805479-1.40274-5.610959-1.40274-8.416438-2.805479-1.40274 0-2.805479-1.40274-4.208219-1.40274-2.805479-1.40274-4.208219-1.40274-7.013699-2.805479-1.40274 0-2.805479-1.40274-4.208219-1.40274-2.805479-1.40274-4.208219-1.40274-7.013699-2.805479-1.40274 0-2.805479-1.40274-2.805479-1.40274-2.805479-1.40274-5.610959-2.805479-7.013699-2.805479h-1.402739l-8.416439-4.20822c-1.40274 0-1.40274-1.40274-2.805479-1.402739-1.40274-1.40274-2.805479-1.40274-5.610959-2.80548-1.40274 0-1.40274-1.40274-2.805479-1.40274-1.40274-1.40274-2.805479-1.40274-4.20822-2.805479-1.40274 0-1.40274-1.40274-2.805479-1.40274 5.610959-2.805479 4.208219-4.208219 2.805479-4.208219l-1.402739-1.40274c-1.40274-1.40274-2.805479-1.40274-4.20822-2.805479 0 0-1.40274 0-1.402739-1.40274-1.40274-1.40274-2.805479-1.40274-4.208219-2.805479l-1.40274-1.40274c-1.40274 0-1.40274-1.40274-2.80548-1.40274l-1.402739-1.402739h-1.40274v-137.468494c1.40274 0 1.40274 1.40274 2.805479 1.40274 4.208219 2.805479 7.013699 4.208219 11.221918 7.013699 1.40274 1.40274 2.805479 1.40274 4.208219 2.805479l16.832877 8.416439c1.40274 0 2.805479 1.40274 4.208219 1.402739 4.208219 1.40274 9.819178 4.208219 14.027397 5.610959 1.40274 1.40274 4.208219 1.40274 5.610959 2.80548 4.208219 1.40274 9.819178 4.208219 14.027398 5.610959 1.40274 0 2.805479 1.40274 4.208219 1.402739 7.013699 2.805479 12.624658 4.208219 19.638356 7.013699 1.40274 0 4.208219 1.40274 5.610959 1.40274 5.610959 1.40274 11.221918 2.805479 15.430137 4.208219 2.805479 0 4.208219 1.40274 7.013699 1.40274l16.832876 4.208219c1.40274 0 2.805479 1.40274 5.610959 1.402739 7.013699 1.40274 15.430137 2.805479 22.443836 4.20822 2.805479 0 4.208219 1.40274 7.013698 1.402739 5.610959 1.40274 11.221918 2.805479 16.832877 2.80548 2.805479 0 5.610959 1.40274 8.416438 1.40274 7.013699 1.40274 12.624658 1.40274 19.638357 2.805479 1.40274 0 4.208219 0 5.610959 1.40274 8.416438 1.40274 15.430137 2.805479 23.846575 2.805479 2.805479 0 5.610959 0 8.416438 1.40274 5.610959 0 11.221918 1.40274 18.235617 1.40274 2.805479 0 5.610959 0 8.416438 1.402739 7.013699 0 14.027397 1.40274 21.041096 1.40274h4.208219c8.416438 0 16.832877 1.40274 25.249315 1.40274H535.846575c141.676712-2.805479 280.547945-29.457534 361.90685-77.150685v136.065753z m-392.767123-342.268493c256.70137 0 395.572603 71.539726 395.572603 108.010959v5.610959c-2.805479 8.416438-9.819178 15.430137-21.041096 23.846575-1.40274 0-1.40274 1.40274-2.80548 1.40274-2.805479 1.40274-5.610959 4.208219-8.416438 5.610959-21.041096 12.624658-53.30411 26.652055-93.983562 37.873972-1.40274 0-2.805479 1.40274-4.208219 1.40274-7.013699 1.40274-14.027397 4.208219-21.041096 5.610959-4.208219 1.40274-9.819178 2.805479-15.430137 2.80548-2.805479 1.40274-7.013699 1.40274-9.819178 2.805479-8.416438 1.40274-15.430137 2.805479-23.846575 4.208219-1.40274 0-2.805479 0-4.208219 1.40274-9.819178 1.40274-19.638356 2.805479-30.860274 4.208219h-2.80548l-33.665753 4.208219h-2.80548c-11.221918 1.40274-22.443836 1.40274-35.068493 2.80548H589.150685c-12.624658 1.40274-23.846575 1.40274-36.471233 1.402739H509.194521h-1.40274c-216.021918 0-349.282192-50.49863-385.753425-88.372602-7.013699-7.013699-9.819178-14.027397-9.819178-19.638356 0-33.665753 138.871233-105.205479 395.572603-105.20548z m392.767123 781.326028c-26.652055 21.041096-129.052055 84.164384-388.558904 84.164383-260.909589 0-371.726027-63.123288-402.586301-85.567123v-134.663014s1.40274 0 1.402739 1.40274c1.40274 1.40274 4.208219 2.805479 7.013699 4.208219 1.40274 0 2.805479 1.40274 4.208219 1.40274 2.805479 1.40274 7.013699 2.805479 11.221918 4.208219 1.40274 0 1.40274 1.40274 2.805479 1.40274 4.208219 1.40274 9.819178 4.208219 14.027398 5.610959 1.40274 0 2.805479 1.40274 4.208219 1.402739 4.208219 1.40274 7.013699 2.805479 11.221918 4.208219 1.40274 1.40274 4.208219 1.40274 5.610959 1.40274 4.208219 1.40274 7.013699 2.805479 11.221917 4.208219 2.805479 1.40274 4.208219 1.40274 7.013699 2.80548l12.624658 4.208219c1.40274 0 4.208219 1.40274 5.610958 1.40274 7.013699 1.40274 12.624658 4.208219 21.041096 5.610959h2.80548c5.610959 1.40274 12.624658 2.805479 19.638356 4.208219 2.805479 0 5.610959 1.40274 7.013699 1.402739 5.610959 1.40274 9.819178 2.805479 15.430137 2.80548 2.805479 0 5.610959 1.40274 8.416438 1.40274 5.610959 1.40274 11.221918 1.40274 16.832877 2.805479 2.805479 0 5.610959 1.40274 8.416438 1.40274 7.013699 1.40274 14.027397 1.40274 21.041096 2.805479 2.805479 0 4.208219 0 7.013699 1.40274 9.819178 1.40274 18.235616 2.805479 28.054794 2.805479 2.805479 0 5.610959 0 8.416438 1.40274 7.013699 1.40274 15.430137 1.40274 22.443836 1.40274 4.208219 0 7.013699 0 11.221918 1.40274 7.013699 0 14.027397 1.40274 21.041096 1.402739h12.624657c7.013699 0 15.430137 0 23.846576 1.40274h93.983561c8.416438 0 15.430137 0 22.443836-1.40274h11.221918c7.013699 0 14.027397-1.40274 21.041096-1.402739 4.208219 0 7.013699 0 11.221917-1.40274 7.013699 0 14.027397-1.40274 21.041096-1.40274 2.805479 0 5.610959 0 8.416439-1.40274 9.819178-1.40274 18.235616-1.40274 28.054794-2.805479h2.80548c8.416438-1.40274 16.832877-2.805479 23.846575-2.805479 2.805479 0 5.610959-1.40274 8.416438-1.40274 5.610959-1.40274 11.221918-1.40274 16.832877-2.80548 2.805479 0 5.610959-1.40274 8.416438-1.402739 5.610959-1.40274 9.819178-1.40274 15.430137-2.80548 2.805479 0 5.610959-1.40274 8.416439-1.40274 5.610959-1.40274 9.819178-2.805479 15.430137-2.805479 1.40274 0 4.208219-1.40274 5.610959-1.40274 7.013699-1.40274 12.624658-2.805479 19.638356-5.610959 1.40274 0 1.40274 0 2.805479-1.402739 5.610959-1.40274 11.221918-2.805479 15.430137-4.208219 1.40274 0 4.208219-1.40274 5.610959-1.40274 4.208219-1.40274 7.013699-2.805479 11.221918-4.208219 1.40274 0 4.208219-1.40274 5.610959-2.80548 2.805479-1.40274 7.013699-2.805479 9.819178-4.208219 1.40274 0 2.805479-1.40274 5.610959-1.40274 4.208219-1.40274 7.013699-2.805479 9.819178-4.208219 1.40274 0 2.805479-1.40274 4.208219-1.40274 4.208219-1.40274 8.416438-4.208219 12.624658-5.610959 0 0 1.40274 0 1.402739-1.402739 4.208219-1.40274 7.013699-2.805479 9.819178-5.610959h1.40274v134.663014z" p-id="1890"></path></svg>