<?xml version="1.0" standalone="no"?><!DOCTYPE svg PUBLIC "-//W3C//DTD SVG 1.1//EN" "http://www.w3.org/Graphics/SVG/1.1/DTD/svg11.dtd"><svg t="1594981117607" class="icon" viewBox="0 0 1024 1024" version="1.1" xmlns="http://www.w3.org/2000/svg" p-id="5772" xmlns:xlink="http://www.w3.org/1999/xlink" width="128" height="128"><defs><style type="text/css"></style></defs><path d="M230.4 444.302222c-50.820741 0-92.16-41.054815-92.16-91.591111s41.339259-91.591111 92.16-91.591111 92.16 41.054815 92.16 91.591111-41.339259 91.591111-92.16 91.591111z m0-140.515555c-27.306667 0-49.493333 21.997037-49.493333 48.924444s22.186667 48.924444 49.493333 48.924445 49.493333-21.997037 49.493333-48.924445-22.186667-48.924444-49.493333-48.924444zM301.700741 896.474074c-50.820741 0-92.16-41.054815-92.16-91.591111s41.339259-91.591111 92.16-91.591111 92.16 41.054815 92.16 91.591111-41.339259 91.591111-92.16 91.591111z m0-140.515555c-27.306667 0-49.493333 21.997037-49.493334 48.924444 0 27.022222 22.186667 48.924444 49.493334 48.924444s49.493333-21.997037 49.493333-48.924444c-0.094815-27.022222-22.281481-48.924444-49.493333-48.924444zM793.979259 550.58963c-50.820741 0-92.16-41.054815-92.16-91.591111s41.339259-91.591111 92.16-91.591112 92.16 41.054815 92.16 91.591112-41.339259 91.591111-92.16 91.591111z m0-140.515556c-27.306667 0-49.493333 21.997037-49.493333 48.924445 0 27.022222 22.186667 48.924444 49.493333 48.924444s49.493333-21.997037 49.493334-48.924444c0-27.022222-22.281481-48.924444-49.493334-48.924445zM671.857778 827.354074c-41.813333 0-75.757037-33.848889-75.757037-75.377778s34.038519-75.377778 75.757037-75.377777 75.757037 33.848889 75.757037 75.377777-33.943704 75.377778-75.757037 75.377778z m0-108.088889c-18.299259 0-33.09037 14.696296-33.090371 32.711111s14.885926 32.711111 33.090371 32.711111 33.09037-14.696296 33.09037-32.711111c0-18.10963-14.885926-32.711111-33.09037-32.711111zM480.331852 692.148148c-89.78963 0-162.891852-72.628148-162.891852-161.848889s73.102222-161.848889 162.891852-161.848889 162.891852 72.628148 162.891852 161.848889S570.121481 692.148148 480.331852 692.148148z m0-281.031111c-66.275556 0-120.225185 53.475556-120.225185 119.182222S413.961481 649.481481 480.331852 649.481481s120.225185-53.475556 120.225185-119.182222-53.94963-119.182222-120.225185-119.182222zM589.842963 344.082963c-59.828148 0-108.468148-48.355556-108.468148-107.804444S530.014815 128.474074 589.842963 128.474074s108.468148 48.355556 108.468148 107.804445-48.734815 107.804444-108.468148 107.804444z m0-172.942222c-36.314074 0-65.801481 29.202963-65.801482 65.137778s29.487407 65.137778 65.801482 65.137777 65.801481-29.202963 65.801481-65.137777-29.582222-65.137778-65.801481-65.137778z" p-id="5773" fill="#1296db"></path><path d="M618.287407 520.248889c-9.765926 0-18.488889-6.731852-20.764444-16.592593-2.654815-11.472593 4.551111-22.945185 16.023704-25.505185L720.592593 453.783704c11.472593-2.654815 22.945185 4.551111 25.505185 16.023703s-4.551111 22.945185-16.023704 25.505186l-107.045926 24.367407c-1.517037 0.379259-3.128889 0.568889-4.740741 0.568889zM529.445926 419.84c-2.465185 0-5.025185-0.474074-7.49037-1.327407-10.998519-4.077037-16.687407-16.402963-12.515556-27.401482l30.151111-81.066667c4.077037-10.998519 16.402963-16.687407 27.401482-12.515555 10.998519 4.077037 16.687407 16.402963 12.515555 27.401481l-30.151111 81.066667c-3.128889 8.533333-11.282963 13.842963-19.911111 13.842963zM365.131852 469.807407c-4.266667 0-8.628148-1.327407-12.325926-3.982222l-77.179259-54.897778c-9.576296-6.826667-11.851852-20.100741-5.025186-29.771851 6.826667-9.576296 20.100741-11.851852 29.771852-5.025186l77.17926 54.897778c9.576296 6.826667 11.851852 20.100741 5.025185 29.771852-4.171852 5.878519-10.714074 9.007407-17.445926 9.007407zM342.85037 769.042963c-3.887407 0-7.86963-1.042963-11.377777-3.318519-9.955556-6.257778-12.894815-19.437037-6.637037-29.392592l62.198518-98.322963c6.257778-9.955556 19.437037-12.894815 29.392593-6.637037s12.894815 19.437037 6.637037 29.392592l-62.198519 98.322963c-4.077037 6.447407-10.998519 9.955556-18.014815 9.955556zM636.112593 732.539259c-5.973333 0-11.851852-2.465185-16.023704-7.30074l-64.474074-73.576297c-7.774815-8.817778-6.921481-22.376296 1.991111-30.151111 8.817778-7.774815 22.376296-6.921481 30.151111 1.991111l64.474074 73.576297c7.774815 8.817778 6.921481 22.376296-1.991111 30.151111-4.077037 3.508148-9.102222 5.30963-14.127407 5.309629z" p-id="5774" fill="#1296db"></path></svg>