<?xml version="1.0" standalone="no"?><!DOCTYPE svg PUBLIC "-//W3C//DTD SVG 1.1//EN" "http://www.w3.org/Graphics/SVG/1.1/DTD/svg11.dtd"><svg t="1595908464185" class="icon" viewBox="0 0 1024 1024" version="1.1" xmlns="http://www.w3.org/2000/svg" p-id="1158" width="32" height="32" xmlns:xlink="http://www.w3.org/1999/xlink"><defs><style type="text/css"></style></defs><path d="M869.248 387.8144h-122.07616v-273.92A31.9232 31.9232 0 0 0 715.29472 81.92H144.512A31.9232 31.9232 0 0 0 112.64 113.88928v791.10144A31.9232 31.9232 0 0 0 144.512 936.96h724.736a31.9232 31.9232 0 0 0 31.872-31.96928V419.78368a31.9232 31.9232 0 0 0-31.872-31.96928z m-185.82528 485.21216h-507.0336V145.85856h507.0336v727.168z m153.94816 0h-90.19904v-421.2736h90.19904v421.27872z" fill="#3B4552" p-id="1159"></path><path d="M504.09472 356.15744H268.02688V292.224h236.06784v63.93344z m79.32928 186.01984h-315.392V478.24384h315.392v63.93344z m0 186.01472h-315.392v-63.93344h315.392v63.93344z" fill="#FF960B" p-id="1160"></path></svg>