<?xml version="1.0" standalone="no"?><!DOCTYPE svg PUBLIC "-//W3C//DTD SVG 1.1//EN" "http://www.w3.org/Graphics/SVG/1.1/DTD/svg11.dtd"><svg t="1595911152926" class="icon" viewBox="0 0 1024 1024" version="1.1" xmlns="http://www.w3.org/2000/svg" p-id="9730" xmlns:xlink="http://www.w3.org/1999/xlink" width="16" height="16"><defs><style type="text/css"></style></defs><path d="M709.786301 284.756164H46.290411c-19.638356 0-35.068493 15.430137-35.068493 35.068494V981.917808c0 19.638356 15.430137 35.068493 35.068493 35.068493h662.093151c19.638356 0 35.068493-15.430137 35.068493-35.068493V319.824658c1.40274-19.638356-14.027397-35.068493-33.665754-35.068494z m-35.068493 662.093151H81.358904V354.893151H673.315068v591.956164z" p-id="9731" fill="#515151"></path><path d="M840.241096 145.884932H178.147945c-19.638356 0-35.068493 15.430137-35.068493 35.068493s15.430137 35.068493 35.068493 35.068493h627.024658v627.024657c0 19.638356 15.430137 35.068493 35.068493 35.068493s35.068493-15.430137 35.068493-35.068493V180.953425c0-19.638356-15.430137-35.068493-35.068493-35.068493z" p-id="9732" fill="#515151"></path><path d="M979.112329 7.013699H317.019178c-19.638356 0-35.068493 15.430137-35.068493 35.068493s15.430137 35.068493 35.068493 35.068493h627.024658v627.024657c0 19.638356 15.430137 35.068493 35.068493 35.068494s35.068493-15.430137 35.068493-35.068494V42.082192c0-19.638356-15.430137-35.068493-35.068493-35.068493z" p-id="9733" fill="#515151"></path></svg>