<?xml version="1.0" standalone="no"?><!DOCTYPE svg PUBLIC "-//W3C//DTD SVG 1.1//EN" "http://www.w3.org/Graphics/SVG/1.1/DTD/svg11.dtd"><svg t="1597123739559" class="icon" viewBox="0 0 1024 1024" version="1.1" xmlns="http://www.w3.org/2000/svg" p-id="5633" xmlns:xlink="http://www.w3.org/1999/xlink" width="32" height="32"><defs><style type="text/css"></style></defs><path d="M501.649 125.397L828.11 273.084c30.191 13.658 43.594 49.205 29.936 79.396a59.999 59.999 0 0 1-29.936 29.936L501.649 530.103a59.997 59.997 0 0 1-49.461 0L125.727 382.416c-30.191-13.658-43.594-49.205-29.936-79.397a59.999 59.999 0 0 1 29.936-29.936l326.461-147.687a60.001 60.001 0 0 1 49.461 0.001zM667.308 825.99l-160.511 72.613a59.997 59.997 0 0 1-49.461 0L130.875 750.916c-30.191-13.658-43.594-49.205-29.936-79.397a59.999 59.999 0 0 1 29.936-29.936l11.79-5.333 314.671 142.353a59.997 59.997 0 0 0 49.461 0l95.447-43.179c10.065 41.467 33.397 72.974 65.064 90.566z m-69.324-162.408l-102.835 46.521a59.997 59.997 0 0 1-49.461 0L119.227 562.416c-30.191-13.658-43.594-49.205-29.936-79.397a59.999 59.999 0 0 1 29.936-29.936l15.04-6.804 317.921 143.823a59.997 59.997 0 0 0 49.461 0l153.521-69.451c-31.048 41.668-52.053 92.072-57.186 142.931z" fill="#3B74FF" p-id="5634"></path><path d="M836.075 692.195c23.431-23.431 23.431-61.421 0-84.853-23.432-23.431-61.421-23.431-84.853 0-23.432 23.432-23.432 61.421 0 84.853 23.431 23.432 61.421 23.432 84.853 0z m18.54 60.966c-46.017 27.178-106.281 20.998-145.819-18.54-46.863-46.863-46.863-122.843 0-169.706 46.863-46.863 122.842-46.863 169.705 0 39.538 39.538 45.718 99.802 18.54 145.819l66.313 66.313-42.427 42.426-66.312-66.312z" fill="#FF7900" p-id="5635"></path></svg>