<?xml version="1.0" standalone="no"?><!DOCTYPE svg PUBLIC "-//W3C//DTD SVG 1.1//EN" "http://www.w3.org/Graphics/SVG/1.1/DTD/svg11.dtd"><svg t="1597028774312" class="icon" viewBox="0 0 1024 1024" version="1.1" xmlns="http://www.w3.org/2000/svg" p-id="1201" width="32" height="32" xmlns:xlink="http://www.w3.org/1999/xlink"><defs><style type="text/css"></style></defs><path d="M510.3616 826.9824l13.5168-15.5648c13.1072 13.5168 31.1296 22.3232 49.9712 22.3232 23.552 0 37.888-11.8784 37.888-29.4912 0-18.432-13.1072-24.3712-29.9008-31.9488l-26.0096-11.264c-16.7936-7.168-36.6592-19.8656-36.6592-46.08 0-27.8528 24.1664-47.9232 56.7296-47.9232 21.2992 0 40.3456 9.0112 53.0432 22.3232l-12.0832 14.5408c-11.0592-10.24-24.3712-16.9984-40.96-16.9984-20.48 0-33.5872 10.24-33.5872 26.4192 0 17.408 15.7696 24.1664 29.696 29.9008l25.8048 11.0592c20.8896 9.0112 37.0688 21.2992 37.0688 48.128 0 28.4672-23.552 51.2-61.2352 51.2-25.8048 0.2048-47.5136-10.0352-63.2832-26.624zM817.5616 891.904c-5.3248 2.048-14.9504 3.8912-25.8048 3.8912-33.1776 0-55.9104-18.0224-66.1504-42.8032-39.3216-5.3248-65.7408-40.3456-65.7408-93.184 0-57.7536 31.744-92.7744 76.8-92.7744 45.2608 0 76.8 35.0208 76.8 92.7744 0 51.8144-25.6 86.2208-63.6928 92.7744 8.192 15.9744 24.576 23.9616 44.2368 23.9616 8.192 0 14.336-1.2288 18.8416-2.6624l4.7104 18.0224z m-80.896-56.7296c32.1536 0 53.4528-29.2864 53.4528-75.1616 0-45.2608-21.2992-72.9088-53.4528-72.9088-32.3584 0-53.4528 27.648-53.4528 72.9088-0.2048 45.8752 21.0944 75.1616 53.4528 75.1616zM852.3776 670.5152h22.9376v160.5632h78.6432v19.456h-101.376v-180.0192zM479.6416 373.5552c-168.5504 0-347.7504-46.4896-347.7504-132.7104s179.2-132.7104 347.7504-132.7104S827.392 154.624 827.392 240.8448s-178.9952 132.7104-347.7504 132.7104z m0-225.28c-190.464 0-307.6096 53.8624-307.6096 92.5696s116.9408 92.5696 307.6096 92.5696c190.464 0 307.6096-53.8624 307.6096-92.5696s-116.9408-92.5696-307.6096-92.5696zM479.6416 537.3952c-168.5504 0-347.7504-46.4896-347.7504-132.7104 0-11.0592 9.0112-20.0704 20.0704-20.0704s20.0704 9.0112 20.0704 20.0704c0 38.7072 116.9408 92.5696 307.6096 92.5696 190.464 0 307.6096-53.8624 307.6096-92.5696 0-11.0592 9.0112-20.0704 20.0704-20.0704s20.0704 9.0112 20.0704 20.0704c0.2048 86.2208-178.9952 132.7104-347.7504 132.7104zM479.6416 701.2352c-168.5504 0-347.7504-46.4896-347.7504-132.7104 0-11.0592 9.0112-20.0704 20.0704-20.0704s20.0704 9.0112 20.0704 20.0704c0 38.7072 116.9408 92.5696 307.6096 92.5696 11.0592 0 20.0704 9.0112 20.0704 20.0704s-8.8064 20.0704-20.0704 20.0704zM479.6416 885.5552c-168.5504 0-347.7504-46.4896-347.7504-132.7104 0-11.0592 9.0112-20.0704 20.0704-20.0704s20.0704 9.0112 20.0704 20.0704c0 38.7072 116.9408 92.5696 307.6096 92.5696 11.0592 0 20.0704 9.0112 20.0704 20.0704s-8.8064 20.0704-20.0704 20.0704z" p-id="1202"></path><path d="M807.3216 670.5152c-11.0592 0-20.0704-9.0112-20.0704-20.0704v-399.36c0-11.0592 9.0112-20.0704 20.0704-20.0704s20.0704 9.0112 20.0704 20.0704v399.36c0.2048 11.0592-8.8064 20.0704-20.0704 20.0704zM151.9616 783.1552c-11.0592 0-20.0704-9.0112-20.0704-20.0704v-512c0-11.0592 9.0112-20.0704 20.0704-20.0704s20.0704 9.0112 20.0704 20.0704v512c0.2048 11.0592-8.8064 20.0704-20.0704 20.0704z" p-id="1203"></path></svg>