<?xml version="1.0" standalone="no"?><!DOCTYPE svg PUBLIC "-//W3C//DTD SVG 1.1//EN" "http://www.w3.org/Graphics/SVG/1.1/DTD/svg11.dtd"><svg t="1595909055842" class="icon" viewBox="0 0 1024 1024" version="1.1" xmlns="http://www.w3.org/2000/svg" p-id="5762" xmlns:xlink="http://www.w3.org/1999/xlink" width="32" height="32"><defs><style type="text/css"></style></defs><path d="M879.06 271.77L536.52 74a49 49 0 0 0-49 0L144.94 271.77a49 49 0 0 0-24.52 42.47v395.53a49 49 0 0 0 24.52 42.47L487.48 950a49 49 0 0 0 49 0l342.58-197.76a49 49 0 0 0 24.52-42.47V314.24a49 49 0 0 0-24.52-42.47z m-60 395.3a38.45 38.45 0 0 1-19.23 33.31l-268.6 155.06a38.46 38.46 0 0 1-38.45 0L224.19 700.37a38.45 38.45 0 0 1-19.19-33.3V356.93a38.44 38.44 0 0 1 19.23-33.3l268.54-155.06a38.46 38.46 0 0 1 38.45 0l268.59 155.07A38.44 38.44 0 0 1 819 356.93z" fill="#C5E3FF" p-id="5763"></path><path d="M512 969a61.52 61.52 0 0 1-30.77-8.22L138.69 763.07a61.72 61.72 0 0 1-30.77-53.3V314.24a61.71 61.71 0 0 1 30.77-53.3L481.23 63.17a61.71 61.71 0 0 1 61.54 0l342.54 197.77a61.71 61.71 0 0 1 30.77 53.3v395.53a61.72 61.72 0 0 1-30.77 53.3L542.77 960.83A61.53 61.53 0 0 1 512 969z m0-889.1a36.53 36.53 0 0 0-18.27 4.88L151.19 282.59a36.64 36.64 0 0 0-18.27 31.65v395.53a36.64 36.64 0 0 0 18.27 31.65l342.54 197.76a36.64 36.64 0 0 0 36.54 0l342.54-197.76a36.65 36.65 0 0 0 18.27-31.65V314.24a36.64 36.64 0 0 0-18.27-31.65L530.27 84.82A36.53 36.53 0 0 0 512 79.94z m0 793.12a50.93 50.93 0 0 1-25.48-6.8L217.94 711.2a51.09 51.09 0 0 1-25.48-44.13V356.93a51.08 51.08 0 0 1 25.48-44.12l268.58-155.06a51.1 51.1 0 0 1 51 0l268.54 155.06a51.08 51.08 0 0 1 25.48 44.12v310.14a51.09 51.09 0 0 1-25.48 44.13L537.48 866.26a51 51 0 0 1-25.48 6.81z m0-697.14a25.93 25.93 0 0 0-13 3.47L230.44 334.46a26 26 0 0 0-13 22.47v310.14a26 26 0 0 0 13 22.48L499 844.61a26 26 0 0 0 26 0l268.56-155.06a26 26 0 0 0 13-22.48V356.93a26 26 0 0 0-13-22.47L525 179.4a26 26 0 0 0-13-3.47z" fill="#3D9FF9" p-id="5764"></path><path d="M512 708.72a12.5 12.5 0 0 1-12.5-12.5V512a12.5 12.5 0 1 1 25 0v184.22a12.5 12.5 0 0 1-12.5 12.5z" fill="#3D9FF9" p-id="5765"></path><path d="M512 524.5a12.5 12.5 0 0 1-4.93-24L722 408.4a12.5 12.5 0 1 1 9.85 23l-214.93 92.09a12.45 12.45 0 0 1-4.92 1.01z" fill="#3D9FF9" p-id="5766"></path><path d="M512 524.5a12.45 12.45 0 0 1-4.92-1l-214.93-92.12a12.5 12.5 0 1 1 9.85-23l214.92 92.11a12.5 12.5 0 0 1-4.93 24z" fill="#3D9FF9" p-id="5767"></path></svg>